<svg width="1819" height="1571" viewBox="0 0 1819 1571" fill="none" xmlns="http://www.w3.org/2000/svg">
<rect width="1819" height="1571" rx="50" fill="#EB231B"/>
<path d="M156.852 759.253H264.763L211.927 628.953L156.852 759.253ZM134.015 788.805L242.823 530.892H253.121L357.451 788.805C363.72 803.581 374.466 820.597 384.765 832.238L409.839 860H271.927L278.644 838.059C283.569 822.835 282.226 803.581 276.405 788.805L268.345 768.656H152.822L144.314 788.805C138.045 803.134 137.15 822.835 141.18 838.059L147.448 860H80.7313L106.702 831.791C117 820.597 127.747 803.134 134.015 788.805ZM526.262 851.492L533.426 860H411.186L418.35 851.492C428.201 839.851 434.47 821.492 434.47 805.82V585.072C434.47 569.4 428.201 551.041 418.35 539.399L411.186 530.892H533.426L526.262 539.399C516.411 551.041 509.695 569.4 509.695 585.072V805.82C509.695 821.492 516.411 839.851 526.262 851.492ZM981.647 760.596C957.468 831.343 901.497 864.478 849.109 864.478C773.884 864.478 711.644 796.865 711.644 694.327C711.644 593.131 772.541 526.414 861.646 526.414C912.244 526.414 955.229 547.907 971.349 594.027C997.319 668.804 911.348 688.058 894.781 604.325C889.855 577.907 890.303 535.817 858.959 535.817C820.899 535.817 786.869 598.952 786.869 675.52C786.869 752.536 820.899 807.611 881.796 807.611C922.99 807.611 957.916 782.089 981.647 760.596ZM1252.06 694.774V805.82C1252.06 821.492 1258.77 839.851 1268.62 851.492L1275.34 860H1153.1L1160.26 851.492C1170.11 839.851 1176.83 821.492 1176.83 805.82V718.506C1176.83 674.625 1164.29 652.236 1139.67 652.236C1109.67 652.236 1087.28 687.61 1087.28 739.999V805.82C1087.28 821.492 1093.99 839.851 1103.85 851.492L1111.01 860H988.77L995.934 851.492C1005.78 839.851 1012.05 821.492 1012.05 805.82V585.072C1012.05 569.4 1005.78 551.041 995.934 539.399L988.77 530.892H1087.28V685.371C1102.95 644.624 1136.98 620.445 1179.52 620.445C1227.88 620.445 1252.06 651.341 1252.06 694.774ZM1433.01 741.79H1422.71C1386.45 741.79 1363.16 767.76 1363.16 802.686C1363.16 828.209 1375.7 846.119 1392.71 846.119C1413.31 846.119 1433.01 819.701 1433.01 764.178V741.79ZM1526.15 852.836L1531.97 860H1433.01V821.044C1421.37 849.254 1398.98 864.478 1364.06 864.478C1317.94 864.478 1287.94 837.612 1287.94 803.134C1287.94 755.223 1346.15 732.387 1398.09 732.387H1433.01V705.521C1433.01 652.236 1417.79 629.848 1400.33 629.848C1381.07 629.848 1373.91 655.819 1371.22 668.804C1353.76 750.297 1297.79 726.566 1307.19 678.655C1313.91 645.52 1347.49 620.445 1401.22 620.445C1459.43 620.445 1508.24 650.445 1508.24 723.879V804.029C1508.24 820.597 1515.4 840.298 1526.15 852.836ZM1522.64 634.326V624.923H1545.92C1586.67 624.923 1611.74 600.296 1611.74 556.862H1621.15V624.923H1686.07V634.326H1621.15V760.596C1621.15 813.88 1622.94 855.522 1644.43 855.522C1657.86 855.522 1661 838.955 1661.89 827.761C1666.82 754.327 1738.01 767.76 1727.71 813.432C1721.89 839.403 1692.79 864.478 1644.43 864.478C1580.85 864.478 1545.92 830 1545.92 756.566V634.326H1522.64Z" fill="white"/>
<path d="M772.05 1036.64C745.017 1036.64 726.83 1018.45 726.83 990.763V934.402C726.83 928.668 724.537 921.95 720.932 917.691L718.311 914.578H763.039L760.418 917.691C756.813 921.95 754.356 928.668 754.356 934.402V994.04C754.356 1016.98 767.135 1029.92 782.536 1029.92C797.445 1029.92 812.191 1017.31 812.191 992.402V934.402C812.191 928.668 809.897 921.95 806.293 917.691L803.671 914.578H824.315L821.694 917.691C818.089 921.95 815.632 928.668 815.632 934.402V990.763C815.632 1018.12 799.084 1036.64 772.05 1036.64ZM917.063 939.809L897.73 970.283L921.159 1009.77C924.108 1014.52 928.695 1020.42 933.119 1024.19L944.752 1035H892.159L892.978 1027.3C893.634 1021.57 892.159 1014.52 889.21 1009.77L873.154 982.735L856.114 1009.77C853.165 1014.52 851.199 1021.57 851.035 1027.3L850.871 1035H824.329L839.403 1023.53C843.99 1020.09 849.069 1014.52 852.018 1009.77L871.351 979.294L847.922 939.809C844.973 935.058 840.386 929.159 835.962 925.391L824.329 914.578H876.922L876.103 922.278C875.447 928.012 876.922 935.058 879.871 939.809L895.927 966.843L912.967 939.809C915.916 935.058 917.882 928.012 918.046 922.278L918.21 914.578H944.752L929.678 926.046C925.091 929.487 920.012 935.058 917.063 939.809ZM1041.27 978.311H1051.1C1069.12 978.311 1080.92 966.351 1080.92 948.492C1080.92 930.142 1069.12 918.018 1051.1 918.018H1041.27V978.311ZM1047.33 1031.89L1049.95 1035H1005.22L1007.84 1031.89C1011.45 1027.63 1013.74 1020.91 1013.74 1015.18V934.402C1013.74 928.668 1011.45 921.95 1007.84 917.691L1005.22 914.578H1075.18C1095.17 914.578 1108.44 927.849 1108.44 947.837C1108.44 968.481 1095.17 981.752 1075.18 981.752H1075.02C1081.57 983.554 1087.31 988.306 1089.93 995.023L1095.17 1008.95C1097.3 1014.36 1101.4 1020.42 1105.49 1024.35L1116.96 1035H1085.34C1079.77 1035 1074.53 1031.4 1072.23 1026.15L1053.72 981.752H1041.27V1015.18C1041.27 1020.91 1043.72 1027.63 1047.33 1031.89ZM1141.89 985.356V985.684H1162.86C1163.35 961.108 1159.26 950.786 1153.19 950.786C1146.15 950.786 1141.89 964.713 1141.89 985.356ZM1163.19 1021.24C1168.27 1021.24 1178.75 1019.6 1191.37 1008.13C1185.47 1021.4 1173.67 1036.64 1153.69 1036.64C1132.22 1036.64 1114.36 1018.78 1114.36 992.074C1114.36 965.204 1132.22 947.346 1154.18 947.346C1174.17 947.346 1187.93 962.255 1187.93 985.684V989.125H1141.89C1142.71 1009.6 1150.41 1021.24 1163.19 1021.24ZM1243.93 1024.35C1243.93 1004.36 1199.86 996.825 1199.86 970.611C1199.86 956.357 1212.8 947.346 1232.3 947.346C1252.29 947.346 1264.74 956.521 1267.03 968.645C1270.47 986.176 1249.99 994.859 1243.6 965.04C1242.62 960.289 1240 950.786 1232.95 950.786C1228.2 950.786 1225.09 955.21 1225.09 960.289C1225.09 979.622 1269.16 988.961 1269.16 1013.86C1269.16 1027.79 1255.56 1036.64 1234.59 1036.64C1213.29 1036.64 1200.84 1027.46 1198.38 1015.34C1194.94 997.808 1215.42 989.125 1221.81 1018.94C1222.8 1023.7 1225.42 1033.36 1234.92 1033.36C1240.65 1033.36 1243.93 1029.59 1243.93 1024.35ZM1304.45 985.356V985.684H1325.42C1325.91 961.108 1321.82 950.786 1315.75 950.786C1308.71 950.786 1304.45 964.713 1304.45 985.356ZM1325.75 1021.24C1330.83 1021.24 1341.31 1019.6 1353.93 1008.13C1348.03 1021.4 1336.23 1036.64 1316.25 1036.64C1294.78 1036.64 1276.92 1018.78 1276.92 992.074C1276.92 965.204 1294.78 947.346 1316.74 947.346C1336.73 947.346 1350.49 962.255 1350.49 985.684V989.125H1304.45C1305.27 1009.6 1312.97 1021.24 1325.75 1021.24ZM1412.55 991.746H1408.78C1395.51 991.746 1386.99 1001.25 1386.99 1014.03C1386.99 1023.37 1391.58 1029.92 1397.81 1029.92C1405.34 1029.92 1412.55 1020.25 1412.55 999.938V991.746ZM1446.63 1032.38L1448.76 1035H1412.55V1020.75C1408.29 1031.07 1400.1 1036.64 1387.32 1036.64C1370.45 1036.64 1359.47 1026.81 1359.47 1014.19C1359.47 996.661 1380.77 988.306 1399.77 988.306H1412.55V978.475C1412.55 958.978 1406.98 950.786 1400.59 950.786C1393.55 950.786 1390.93 960.289 1389.94 965.04C1383.55 994.859 1363.07 986.176 1366.51 968.645C1368.97 956.521 1381.26 947.346 1400.92 947.346C1422.22 947.346 1440.08 958.323 1440.08 985.193V1014.52C1440.08 1020.58 1442.7 1027.79 1446.63 1032.38ZM1494.36 1031.89L1496.98 1035H1452.25L1454.88 1031.89C1458.48 1027.63 1460.77 1020.91 1460.77 1015.18V968.809C1460.77 963.074 1458.48 956.357 1454.88 952.097L1452.25 948.984H1488.3V967.498C1492.56 954.882 1500.42 947.346 1511.24 947.346C1522.05 947.346 1532.21 955.046 1534.5 967.006C1537.94 986.176 1517.46 994.859 1511.56 967.662C1510.09 960.289 1507.47 955.865 1502.39 955.865C1493.87 955.865 1488.3 967.989 1488.3 992.074V1015.18C1488.3 1020.91 1490.76 1027.63 1494.36 1031.89ZM1589.11 1021.24C1594.03 1021.24 1604.51 1019.6 1617.13 1008.13C1611.23 1021.4 1599.43 1036.64 1579.45 1036.64C1557.98 1036.64 1540.12 1018.78 1540.12 992.074C1540.12 965.204 1557.98 947.346 1581.74 947.346C1598.94 947.346 1611.39 956.521 1613.69 968.645C1617.13 986.176 1596.65 994.859 1590.42 965.04C1589.28 960.289 1586.82 950.786 1580.76 950.786C1573.38 950.786 1567.65 965.86 1567.65 985.356C1567.65 1008.13 1575.51 1021.24 1589.11 1021.24ZM1715.46 974.543V1015.18C1715.46 1020.91 1717.92 1027.63 1721.52 1031.89L1723.98 1035H1679.25L1681.87 1031.89C1685.48 1027.63 1687.93 1020.91 1687.93 1015.18V983.227C1687.93 967.17 1683.35 958.978 1674.34 958.978C1663.36 958.978 1655.17 971.922 1655.17 991.091V1015.18C1655.17 1020.91 1657.62 1027.63 1661.23 1031.89L1663.85 1035H1619.12L1621.74 1031.89C1625.35 1027.63 1627.64 1020.91 1627.64 1015.18V934.402C1627.64 928.668 1625.35 921.95 1621.74 917.691L1619.12 914.578H1655.17V971.102C1660.9 956.193 1673.35 947.346 1688.92 947.346C1706.61 947.346 1715.46 958.651 1715.46 974.543Z" fill="black"/>
</svg>
