<svg width="1819" height="1571" viewBox="0 0 1819 1571" fill="none" xmlns="http://www.w3.org/2000/svg">
<g clip-path="url(#clip0_6945_290)">
<rect width="1819" height="1571" rx="50" fill="#042D3F"/>
<path d="M920.132 949.434V1369.29C926.744 1369.29 931.703 1369.29 936.661 1369.29C1039.15 1369.29 1120.14 1306.48 1120.14 1200.69C1120.14 1091.59 1032.53 1017.21 920.132 949.434ZM885.419 605.617V207.253C882.114 207.253 877.155 207.253 873.849 207.253C781.283 207.253 713.511 265.106 713.511 364.284C713.511 466.768 787.894 541.152 885.419 605.617ZM885.419 927.946C695.328 817.197 458.954 714.713 458.954 493.216C458.954 299.819 637.475 174.193 885.419 172.54V-5.98002H920.132V172.54C1131.71 180.805 1288.74 281.636 1344.94 435.362C1437.51 698.184 1120.14 769.261 1054.02 433.709C1042.45 370.896 1027.57 241.965 920.132 212.212V628.759C1115.18 747.772 1374.7 848.603 1374.7 1078.37C1374.7 1270.11 1191.22 1397.39 920.132 1404V1584.17H885.419V1404C668.881 1400.69 516.808 1321.35 458.954 1154.4C361.429 878.357 678.799 807.279 744.917 1141.18C758.141 1203.99 771.365 1334.58 885.419 1364.33V927.946Z" fill="#0E87BB"/>
<path d="M257.135 626.62C241.475 672.44 205.225 693.9 171.295 693.9C122.575 693.9 82.2648 650.11 82.2648 583.7C82.2648 518.16 121.705 474.95 179.415 474.95C212.185 474.95 240.025 488.87 250.465 518.74C267.285 567.17 211.605 579.64 200.875 525.41C197.685 508.3 197.975 481.04 177.675 481.04C153.025 481.04 130.985 521.93 130.985 571.52C130.985 621.4 153.025 657.07 192.465 657.07C219.145 657.07 241.765 640.54 257.135 626.62ZM432.268 583.99V655.91C432.268 666.06 436.618 677.95 442.998 685.49L447.348 691H368.178L372.818 685.49C379.198 677.95 383.548 666.06 383.548 655.91V599.36C383.548 570.94 375.428 556.44 359.478 556.44C340.048 556.44 325.548 579.35 325.548 613.28V655.91C325.548 666.06 329.898 677.95 336.278 685.49L340.918 691H261.748L266.388 685.49C272.768 677.95 276.828 666.06 276.828 655.91V512.94C276.828 502.79 272.768 490.9 266.388 483.36L261.748 477.85H325.548V577.9C335.698 551.51 357.738 535.85 385.288 535.85C416.608 535.85 432.268 555.86 432.268 583.99ZM549.466 614.44H542.796C519.306 614.44 504.226 631.26 504.226 653.88C504.226 670.41 512.346 682.01 523.366 682.01C536.706 682.01 549.466 664.9 549.466 628.94V614.44ZM609.786 686.36L613.556 691H549.466V665.77C541.926 684.04 527.426 693.9 504.806 693.9C474.936 693.9 455.506 676.5 455.506 654.17C455.506 623.14 493.206 608.35 526.846 608.35H549.466V590.95C549.466 556.44 539.606 541.94 528.296 541.94C515.826 541.94 511.186 558.76 509.446 567.17C498.136 619.95 461.886 604.58 467.976 573.55C472.326 552.09 494.076 535.85 528.876 535.85C566.576 535.85 598.186 555.28 598.186 602.84V654.75C598.186 665.48 602.826 678.24 609.786 686.36ZM694.267 685.49L698.907 691H619.737L624.377 685.49C630.757 677.95 634.817 666.06 634.817 655.91V573.84C634.817 563.69 630.757 551.8 624.377 544.26L619.737 538.75H683.537V571.52C691.077 549.19 704.997 535.85 724.137 535.85C743.277 535.85 761.257 549.48 765.317 570.65C771.407 604.58 735.157 619.95 724.717 571.81C722.107 558.76 717.467 550.93 708.477 550.93C693.397 550.93 683.537 572.39 683.537 615.02V655.91C683.537 666.06 687.887 677.95 694.267 685.49ZM819.06 701.73C819.64 702.89 819.93 704.34 820.22 705.79C823.41 718.26 837.91 745.81 864.3 745.81C880.83 745.81 895.33 734.79 895.33 719.42C895.33 692.45 852.12 703.18 819.06 701.73ZM824.28 592.69C824.28 622.56 837.62 645.47 856.47 645.47C875.32 645.47 888.66 623.14 888.66 592.98C888.66 561.95 874.74 541.94 856.18 541.94C837.62 541.94 824.28 562.53 824.28 592.69ZM775.56 592.4C775.56 558.76 807.75 535.85 855.31 535.85C890.69 535.85 898.23 530.63 898.23 521.64C898.23 514.97 893.88 512.65 887.5 510.91C859.37 504.82 874.16 478.43 901.13 486.26C914.47 490.32 922.3 500.47 922.3 512.36C922.3 528.02 908.67 536.43 887.5 539.62C917.37 547.45 937.38 566.88 937.38 592.69C937.38 626.33 904.03 651.56 856.18 651.56C855.89 651.56 855.31 651.56 855.02 651.56C836.75 651.56 827.18 654.46 827.18 659.1C827.18 675.34 939.99 636.48 939.99 696.51C939.99 729.28 906.06 751.9 858.5 751.9C820.51 751.9 792.96 737.98 784.55 716.81C780.49 705.5 783.39 697.38 789.48 692.74C785.42 688.68 782.52 682.88 782.52 674.18C782.52 655.04 795.57 648.37 821.67 646.34C793.25 637.06 775.56 617.05 775.56 592.4ZM1000.43 603.13V603.71H1037.55C1038.42 560.21 1031.17 541.94 1020.44 541.94C1007.97 541.94 1000.43 566.59 1000.43 603.13ZM1038.13 666.64C1047.12 666.64 1065.68 663.74 1088.01 643.44C1077.57 666.93 1056.69 693.9 1021.31 693.9C983.315 693.9 951.705 662.29 951.705 615.02C951.705 567.46 983.315 535.85 1022.18 535.85C1057.56 535.85 1081.92 562.24 1081.92 603.71V609.8H1000.43C1001.88 646.05 1015.51 666.64 1038.13 666.64ZM1151.24 671.86C1153.56 672.44 1155.59 672.73 1158.2 672.73C1181.4 672.73 1196.77 646.92 1196.77 601.68C1196.77 566.59 1187.2 548.03 1175.31 548.03C1164.29 548.03 1151.24 564.85 1151.24 600.81V671.86ZM1102.52 691V512.94C1102.52 502.79 1098.46 490.9 1092.08 483.36L1087.44 477.85H1151.24V563.11C1158.49 545.13 1171.83 535.85 1189.81 535.85C1222.29 535.85 1245.49 567.46 1245.49 611.25C1245.49 662.29 1213.88 693.9 1177.34 693.9C1161.68 693.9 1148.92 688.39 1138.48 679.69L1102.52 691ZM1351.5 614.44H1344.83C1321.34 614.44 1306.26 631.26 1306.26 653.88C1306.26 670.41 1314.38 682.01 1325.4 682.01C1338.74 682.01 1351.5 664.9 1351.5 628.94V614.44ZM1411.82 686.36L1415.59 691H1351.5V665.77C1343.96 684.04 1329.46 693.9 1306.84 693.9C1276.97 693.9 1257.54 676.5 1257.54 654.17C1257.54 623.14 1295.24 608.35 1328.88 608.35H1351.5V590.95C1351.5 556.44 1341.64 541.94 1330.33 541.94C1317.86 541.94 1313.22 558.76 1311.48 567.17C1300.17 619.95 1263.92 604.58 1270.01 573.55C1274.36 552.09 1296.11 535.85 1330.91 535.85C1368.61 535.85 1400.22 555.28 1400.22 602.84V654.75C1400.22 665.48 1404.86 678.24 1411.82 686.36ZM1508.53 666.64C1517.23 666.64 1535.79 663.74 1558.12 643.44C1547.68 666.93 1526.8 693.9 1491.42 693.9C1453.43 693.9 1421.82 662.29 1421.82 615.02C1421.82 567.46 1453.43 535.85 1495.48 535.85C1525.93 535.85 1547.97 552.09 1552.03 573.55C1558.12 604.58 1521.87 619.95 1510.85 567.17C1508.82 558.76 1504.47 541.94 1493.74 541.94C1480.69 541.94 1470.54 568.62 1470.54 603.13C1470.54 643.44 1484.46 666.64 1508.53 666.64ZM1636.18 685.49L1640.82 691H1561.65L1566.29 685.49C1572.67 677.95 1576.73 666.06 1576.73 655.91V512.94C1576.73 502.79 1572.67 490.9 1566.29 483.36L1561.65 477.85H1625.45V606.03L1669.53 568.62C1677.65 561.66 1682 550.06 1679.68 539.33V538.75H1725.79L1708.39 548.61C1699.11 553.54 1687.22 561.66 1678.81 568.62L1639.95 601.68H1661.99C1678.52 601.68 1693.31 611.83 1698.53 627.2L1705.78 644.89C1708.97 654.17 1716.22 665.19 1723.76 672.15L1744.06 691H1688.09C1677.94 691 1668.95 684.91 1664.89 675.34L1635.89 605.16L1625.45 613.86V655.91C1625.45 666.06 1629.8 677.95 1636.18 685.49ZM659.447 927.47H642.628V995.91C642.628 1006.06 646.978 1017.95 653.358 1025.49L657.998 1031H578.828L583.468 1025.49C589.848 1017.95 593.908 1006.06 593.908 995.91V852.94C593.908 842.79 589.848 830.9 583.468 823.36L578.828 817.85H740.068L749.348 863.67H743.258L730.208 850.33C714.258 834.67 688.738 823.94 666.118 823.94H642.628V921.38H659.447C671.338 921.38 683.518 914.71 689.608 904.56L694.538 897.02H700.628V951.83H694.538L689.608 944.29C683.518 934.14 671.338 927.47 659.447 927.47ZM825.511 1025.49L830.151 1031H750.981L755.621 1025.49C762.001 1017.95 766.061 1006.06 766.061 995.91V852.94C766.061 842.79 762.001 830.9 755.621 823.36L750.981 817.85H814.781V995.91C814.781 1006.06 819.131 1017.95 825.511 1025.49ZM885.58 955.02C885.58 998.81 899.5 1028.1 923.86 1028.1C947.93 1028.1 962.14 998.81 962.14 955.02C962.14 910.94 947.93 881.94 923.86 881.94C899.5 881.94 885.58 910.94 885.58 955.02ZM836.86 955.02C836.86 907.46 868.47 875.85 923.86 875.85C978.96 875.85 1010.86 907.46 1010.86 955.02C1010.86 1002.29 978.96 1033.9 923.86 1033.9C868.47 1033.9 836.86 1002.29 836.86 955.02ZM1080.68 914.42L1100.98 966.62L1119.83 922.25L1116.64 914.42C1112.87 904.27 1104.75 892.67 1096.92 885.71L1088.8 878.75H1171.74L1170.58 881.36C1165.65 891.22 1165.07 904.27 1169.13 914.42L1189.43 966.62L1211.76 913.55C1215.82 903.69 1214.66 890.93 1208.86 882.23L1206.83 878.75H1246.85L1239.02 885.42C1230.9 892.38 1222.49 903.69 1218.43 913.55L1169.13 1031H1162.46L1123.02 930.66L1080.68 1031H1074.01L1028.48 914.42C1024.71 904.27 1016.59 892.67 1008.47 885.71L1000.64 878.75H1083.58L1082.13 881.36C1077.49 891.22 1076.62 904.27 1080.68 914.42Z" fill="white"/>
</g>
<defs>
<clipPath id="clip0_6945_290">
<rect width="1819" height="1571" rx="50" fill="white"/>
</clipPath>
</defs>
</svg>
