<svg width="1819" height="1571" viewBox="0 0 1819 1571" fill="none" xmlns="http://www.w3.org/2000/svg">
<g clip-path="url(#clip0_6945_290)">
<rect width="1819" height="1571" rx="50" fill="#042D3F"/>
<path d="M920.132 949.434V1369.29C926.744 1369.29 931.703 1369.29 936.661 1369.29C1039.15 1369.29 1120.14 1306.48 1120.14 1200.69C1120.14 1091.59 1032.53 1017.21 920.132 949.434ZM885.419 605.617V207.253C882.114 207.253 877.155 207.253 873.849 207.253C781.283 207.253 713.511 265.106 713.511 364.284C713.511 466.768 787.894 541.152 885.419 605.617ZM885.419 927.946C695.328 817.197 458.954 714.713 458.954 493.216C458.954 299.819 637.475 174.193 885.419 172.54V-5.98002H920.132V172.54C1131.71 180.805 1288.74 281.636 1344.94 435.362C1437.51 698.184 1120.14 769.261 1054.02 433.709C1042.45 370.896 1027.57 241.965 920.132 212.212V628.759C1115.18 747.772 1374.7 848.603 1374.7 1078.37C1374.7 1270.11 1191.22 1397.39 920.132 1404V1584.17H885.419V1404C668.881 1400.69 516.808 1321.35 458.954 1154.4C361.429 878.357 678.799 807.279 744.917 1141.18C758.141 1203.99 771.365 1334.58 885.419 1364.33V927.946Z" fill="#0E87BB"/>
<path d="M280.689 768.108C271.229 795.788 249.33 808.752 228.833 808.752C199.401 808.752 175.049 782.298 175.049 742.18C175.049 702.587 198.875 676.483 233.738 676.483C253.535 676.483 270.353 684.892 276.66 702.937C286.821 732.194 253.184 739.727 246.702 706.966C244.775 696.63 244.95 680.162 232.687 680.162C217.796 680.162 204.481 704.864 204.481 734.822C204.481 764.954 217.796 786.503 241.622 786.503C257.739 786.503 271.404 776.517 280.689 768.108ZM386.488 742.355V785.802C386.488 791.934 389.115 799.116 392.97 803.671L395.597 807H347.77L350.574 803.671C354.428 799.116 357.056 791.934 357.056 785.802V751.64C357.056 734.471 352.15 725.712 342.515 725.712C330.777 725.712 322.018 739.552 322.018 760.049V785.802C322.018 791.934 324.645 799.116 328.5 803.671L331.303 807H283.476L286.279 803.671C290.133 799.116 292.586 791.934 292.586 785.802V699.433C292.586 693.302 290.133 686.119 286.279 681.564L283.476 678.235H322.018V738.676C328.149 722.733 341.464 713.273 358.107 713.273C377.027 713.273 386.488 725.361 386.488 742.355ZM457.288 760.75H453.258C439.068 760.75 429.958 770.911 429.958 784.576C429.958 794.561 434.863 801.569 441.521 801.569C449.579 801.569 457.288 791.233 457.288 769.509V760.75ZM493.727 804.197L496.005 807H457.288V791.758C452.733 802.795 443.973 808.752 430.308 808.752C412.264 808.752 400.526 798.24 400.526 784.751C400.526 766.005 423.301 757.071 443.623 757.071H457.288V746.559C457.288 725.712 451.331 716.952 444.499 716.952C436.966 716.952 434.163 727.113 433.111 732.194C426.279 764.078 404.38 754.793 408.059 736.048C410.687 723.084 423.826 713.273 444.849 713.273C467.624 713.273 486.72 725.011 486.72 753.742V785.101C486.72 791.583 489.523 799.292 493.727 804.197ZM544.762 803.671L547.565 807H499.738L502.541 803.671C506.396 799.116 508.848 791.934 508.848 785.802V736.223C508.848 730.091 506.396 722.909 502.541 718.354L499.738 715.025H538.28V734.822C542.835 721.332 551.244 713.273 562.807 713.273C574.369 713.273 585.231 721.507 587.684 734.296C591.363 754.793 569.464 764.078 563.157 734.997C561.581 727.113 558.778 722.383 553.347 722.383C544.237 722.383 538.28 735.347 538.28 761.1V785.802C538.28 791.934 540.908 799.116 544.762 803.671ZM620.15 813.482C620.501 814.183 620.676 815.059 620.851 815.935C622.778 823.468 631.538 840.111 647.48 840.111C657.466 840.111 666.225 833.454 666.225 824.169C666.225 807.876 640.122 814.358 620.15 813.482ZM623.304 747.61C623.304 765.655 631.362 779.495 642.75 779.495C654.137 779.495 662.196 766.005 662.196 747.786C662.196 729.04 653.787 716.952 642.575 716.952C631.362 716.952 623.304 729.391 623.304 747.61ZM593.872 747.435C593.872 727.113 613.318 713.273 642.049 713.273C663.422 713.273 667.977 710.12 667.977 704.689C667.977 700.66 665.349 699.258 661.495 698.207C644.502 694.528 653.436 678.586 669.729 683.316C677.788 685.768 682.518 691.9 682.518 699.083C682.518 708.543 674.284 713.624 661.495 715.551C679.54 720.281 691.628 732.019 691.628 747.61C691.628 767.933 671.481 783.174 642.575 783.174C642.399 783.174 642.049 783.174 641.874 783.174C630.837 783.174 625.056 784.926 625.056 787.729C625.056 797.54 693.205 774.064 693.205 810.329C693.205 830.125 672.707 843.79 643.976 843.79C621.026 843.79 604.383 835.381 599.303 822.592C596.85 815.76 598.602 810.854 602.281 808.051C599.828 805.598 598.076 802.095 598.076 796.839C598.076 785.276 605.96 781.247 621.727 780.021C604.558 774.415 593.872 762.326 593.872 747.435ZM729.714 753.917V754.268H752.138C752.664 727.989 748.284 716.952 741.802 716.952C734.269 716.952 729.714 731.843 729.714 753.917ZM752.489 792.284C757.92 792.284 769.132 790.532 782.621 778.269C776.315 792.459 763.701 808.752 742.328 808.752C719.378 808.752 700.282 789.656 700.282 761.1C700.282 732.369 719.378 713.273 742.853 713.273C764.226 713.273 778.942 729.216 778.942 754.268V757.947H729.714C730.59 779.846 738.824 792.284 752.489 792.284ZM820.821 795.437C822.223 795.788 823.449 795.963 825.026 795.963C839.041 795.963 848.326 780.371 848.326 753.041C848.326 731.843 842.545 720.631 835.362 720.631C828.705 720.631 820.821 730.792 820.821 752.516V795.437ZM791.389 807V699.433C791.389 693.302 788.936 686.119 785.082 681.564L782.279 678.235H820.821V729.741C825.201 718.879 833.26 713.273 844.121 713.273C863.743 713.273 877.758 732.369 877.758 758.823C877.758 789.656 858.662 808.752 836.588 808.752C827.128 808.752 819.42 805.423 813.113 800.168L791.389 807ZM941.798 760.75H937.769C923.578 760.75 914.469 770.911 914.469 784.576C914.469 794.561 919.374 801.569 926.031 801.569C934.09 801.569 941.798 791.233 941.798 769.509V760.75ZM978.238 804.197L980.515 807H941.798V791.758C937.243 802.795 928.484 808.752 914.819 808.752C896.774 808.752 885.037 798.24 885.037 784.751C885.037 766.005 907.811 757.071 928.133 757.071H941.798V746.559C941.798 725.712 935.842 716.952 929.009 716.952C921.476 716.952 918.673 727.113 917.622 732.194C910.79 764.078 888.891 754.793 892.57 736.048C895.198 723.084 908.337 713.273 929.36 713.273C952.134 713.273 971.23 725.011 971.23 753.742V785.101C971.23 791.583 974.033 799.292 978.238 804.197ZM1036.66 792.284C1041.92 792.284 1053.13 790.532 1066.62 778.269C1060.31 792.459 1047.7 808.752 1026.33 808.752C1003.38 808.752 984.282 789.656 984.282 761.1C984.282 732.369 1003.38 713.273 1028.78 713.273C1047.18 713.273 1060.49 723.084 1062.94 736.048C1066.62 754.793 1044.72 764.078 1038.07 732.194C1036.84 727.113 1034.21 716.952 1027.73 716.952C1019.85 716.952 1013.71 733.07 1013.71 753.917C1013.71 778.269 1022.12 792.284 1036.66 792.284ZM1113.78 803.671L1116.58 807H1068.75L1071.56 803.671C1075.41 799.116 1077.86 791.934 1077.86 785.802V699.433C1077.86 693.302 1075.41 686.119 1071.56 681.564L1068.75 678.235H1107.29V755.669L1133.92 733.07C1138.83 728.865 1141.46 721.858 1140.05 715.375V715.025H1167.91L1157.4 720.982C1151.79 723.96 1144.61 728.865 1139.53 733.07L1116.05 753.041H1129.37C1139.35 753.041 1148.29 759.173 1151.44 768.458L1155.82 779.145C1157.75 784.751 1162.13 791.408 1166.68 795.613L1178.95 807H1145.14C1139 807 1133.57 803.321 1131.12 797.54L1113.6 755.144L1107.29 760.399V785.802C1107.29 791.934 1109.92 799.116 1113.78 803.671ZM1293.01 744.457H1282.85V785.802C1282.85 791.934 1285.47 799.116 1289.33 803.671L1292.13 807H1244.31L1247.11 803.671C1250.96 799.116 1253.42 791.934 1253.42 785.802V699.433C1253.42 693.302 1250.96 686.119 1247.11 681.564L1244.31 678.235H1341.71L1347.32 705.915H1343.64L1335.75 697.856C1326.12 688.396 1310.7 681.914 1297.04 681.914H1282.85V740.778H1293.01C1300.19 740.778 1307.55 736.749 1311.23 730.617L1314.21 726.062H1317.89V759.173H1314.21L1311.23 754.618C1307.55 748.486 1300.19 744.457 1293.01 744.457ZM1393.33 803.671L1396.13 807H1348.3L1351.11 803.671C1354.96 799.116 1357.41 791.934 1357.41 785.802V699.433C1357.41 693.302 1354.96 686.119 1351.11 681.564L1348.3 678.235H1386.85V785.802C1386.85 791.934 1389.47 799.116 1393.33 803.671ZM1429.62 761.1C1429.62 787.554 1438.02 805.248 1452.74 805.248C1467.28 805.248 1475.87 787.554 1475.87 761.1C1475.87 734.471 1467.28 716.952 1452.74 716.952C1438.02 716.952 1429.62 734.471 1429.62 761.1ZM1400.18 761.1C1400.18 732.369 1419.28 713.273 1452.74 713.273C1486.03 713.273 1505.3 732.369 1505.3 761.1C1505.3 789.656 1486.03 808.752 1452.74 808.752C1419.28 808.752 1400.18 789.656 1400.18 761.1ZM1547.48 736.574L1559.74 768.108L1571.13 741.304L1569.2 736.574C1566.93 730.442 1562.02 723.434 1557.29 719.23L1552.38 715.025H1602.49L1601.79 716.602C1598.81 722.558 1598.46 730.442 1600.91 736.574L1613.18 768.108L1626.66 736.048C1629.12 730.091 1628.42 722.383 1624.91 717.127L1623.69 715.025H1647.86L1643.13 719.054C1638.23 723.259 1633.15 730.091 1630.69 736.048L1600.91 807H1596.88L1573.06 746.384L1547.48 807H1543.45L1515.94 736.574C1513.67 730.442 1508.76 723.434 1503.86 719.23L1499.13 715.025H1549.23L1548.35 716.602C1545.55 722.558 1545.03 730.442 1547.48 736.574Z" fill="white"/>
</g>
<defs>
<clipPath id="clip0_6945_290">
<rect width="1819" height="1571" rx="50" fill="white"/>
</clipPath>
</defs>
</svg>
