<svg width="1772" height="1537" viewBox="0 0 1772 1537" fill="none" xmlns="http://www.w3.org/2000/svg">
<rect x="14.7109" y="17.2227" width="1756.43" height="1519.78" rx="64.8291" fill="black"/>
<path d="M129.658 1.81506H1600.29C1630.9 1.81506 1653.68 1.81892 1671.18 4.17238C1688.64 6.51882 1700.58 11.1709 1709.68 20.2715C1718.78 29.372 1723.43 41.3123 1725.78 58.7649C1728.13 76.2697 1728.13 99.0462 1728.13 129.658V137.604H1.81506V129.658C1.81506 99.0462 1.81892 76.2698 4.17238 58.7649C6.51882 41.3123 11.1709 29.372 20.2715 20.2715C29.372 11.1709 41.3123 6.51882 58.7649 4.17238C76.2698 1.81892 99.0462 1.81506 129.658 1.81506Z" fill="url(#paint0_linear_4849_7990)" stroke="black" stroke-width="3.63012"/>
<circle cx="99.9765" cy="64.4999" r="42.5031" fill="#E8DEFF" stroke="black" stroke-width="2.94678"/>
<circle cx="225.623" cy="64.4999" r="42.5031" fill="#E8DEFF" stroke="black" stroke-width="2.94678"/>
<circle cx="351.271" cy="64.4999" r="42.5031" fill="#E8DEFF" stroke="black" stroke-width="2.94678"/>
<path d="M3 127.527H1.52661V129V1348.69V1348.76C1.52661 1367.47 1.52661 1381.59 2.47375 1392.82C3.42364 1404.07 5.33406 1412.54 9.23324 1419.91C15.4524 1431.65 25.0582 1441.26 36.8042 1447.48C44.1685 1451.38 52.6407 1453.29 63.897 1454.24C75.1209 1455.19 89.2461 1455.19 107.951 1455.19H108.023H1622.29H1622.36C1641.07 1455.19 1655.19 1455.19 1666.42 1454.24C1677.67 1453.29 1686.14 1451.38 1693.51 1447.48C1705.25 1441.26 1714.86 1431.65 1721.08 1419.91C1724.98 1412.54 1726.89 1404.07 1727.84 1392.82C1728.79 1381.59 1728.79 1367.47 1728.79 1348.76V1348.69V129V127.527H1727.31H3Z" fill="#FAFAFA" stroke="black" stroke-width="2.94678"/>
<path d="M56 257C56 219.997 85.9969 190 123 190H858C895.003 190 925 219.997 925 257V348C925 385.003 895.003 415 858 415H123C85.9969 415 56 385.003 56 348V257Z" fill="#DDD6EA"/>
<path d="M155.448 484.513C185.282 453.386 205.674 418.993 175.706 371.405C167.913 359.031 173.339 341.842 187.838 339.944C227.925 334.698 291.543 332.394 296.438 369.509C303.626 424.008 120.459 521.019 155.448 484.513Z" fill="#DDD6EA"/>
<path d="M78 950.5C78 919.296 103.296 894 134.5 894H890.5C921.704 894 947 919.296 947 950.5C947 981.704 921.704 1007 890.5 1007H134.5C103.296 1007 78 981.704 78 950.5Z" fill="#DDD6EA"/>
<path d="M177.448 1076.51C207.282 1045.39 227.674 1010.99 197.706 963.405C189.913 951.031 195.339 933.842 209.838 931.944C249.925 926.698 313.543 924.394 318.438 961.509C325.626 1016.01 142.459 1113.02 177.448 1076.51Z" fill="#DDD6EA"/>
<path d="M1669 556C1669 518.997 1639 489 1602 489H747C709.997 489 680 518.997 680 556V728C680 765.003 709.997 795 747 795H1602C1639 795 1669 765.003 1669 728V556Z" fill="#C5C6EE"/>
<path d="M1555.93 874.883C1521.13 838.633 1497.61 798.49 1535.32 742.347C1543.48 730.201 1538.04 713.002 1523.55 710.966C1478.3 704.609 1401 700.331 1395.24 743.999C1387.04 806.023 1595.81 916.43 1555.93 874.883Z" fill="#C5C6EE"/>
<rect x="74" y="1201" width="1188" height="181" rx="28" fill="#F5F5F6"/>
<rect x="74" y="1201" width="1188" height="181" rx="28" stroke="black" stroke-width="8"/>
<path d="M137.391 1330V1268.45H113.953V1260.2H170.109V1268.45H146.672V1330H137.391ZM217.014 1330H208.201V1300.19C208.201 1297.78 208.076 1295.55 207.826 1293.48C207.607 1291.39 207.17 1289.72 206.514 1288.47C205.795 1287.16 204.795 1286.19 203.514 1285.56C202.232 1284.91 200.482 1284.58 198.264 1284.58C196.076 1284.58 193.811 1285.17 191.467 1286.36C189.154 1287.52 186.889 1289.03 184.67 1290.91V1330H175.857V1257.06H184.67V1283.45C187.295 1281.11 189.889 1279.31 192.451 1278.06C195.014 1276.81 197.717 1276.19 200.561 1276.19C205.717 1276.19 209.748 1277.89 212.654 1281.3C215.561 1284.67 217.014 1289.58 217.014 1296.02V1330ZM258.059 1317.11V1302.58C255.965 1302.77 253.309 1303.03 250.09 1303.38C246.902 1303.69 244.324 1304.14 242.356 1304.73C240.012 1305.45 238.074 1306.56 236.543 1308.06C235.012 1309.53 234.246 1311.59 234.246 1314.25C234.246 1317.25 235.09 1319.52 236.777 1321.05C238.465 1322.58 240.934 1323.34 244.184 1323.34C246.965 1323.34 249.481 1322.75 251.731 1321.56C253.981 1320.34 256.09 1318.86 258.059 1317.11ZM258.059 1324.42C257.34 1324.95 256.371 1325.7 255.152 1326.67C253.965 1327.61 252.809 1328.36 251.684 1328.92C250.121 1329.73 248.606 1330.36 247.137 1330.8C245.699 1331.23 243.668 1331.45 241.043 1331.45C238.887 1331.45 236.84 1331.05 234.902 1330.23C232.965 1329.42 231.262 1328.28 229.793 1326.81C228.387 1325.38 227.262 1323.61 226.418 1321.52C225.574 1319.39 225.152 1317.16 225.152 1314.81C225.152 1311.19 225.918 1308.11 227.449 1305.58C228.981 1303.02 231.402 1300.98 234.715 1299.48C237.652 1298.14 241.121 1297.22 245.121 1296.72C249.121 1296.19 253.434 1295.8 258.059 1295.55V1293.86C258.059 1291.8 257.746 1290.14 257.121 1288.89C256.496 1287.61 255.621 1286.62 254.496 1285.94C253.371 1285.22 251.996 1284.75 250.371 1284.53C248.746 1284.28 247.074 1284.16 245.356 1284.16C243.324 1284.16 240.934 1284.47 238.184 1285.09C235.434 1285.69 232.684 1286.56 229.934 1287.72H229.418V1278.77C231.043 1278.3 233.371 1277.78 236.402 1277.22C239.434 1276.66 242.434 1276.38 245.402 1276.38C248.996 1276.38 252.027 1276.66 254.496 1277.22C256.965 1277.78 259.184 1278.8 261.152 1280.27C263.059 1281.7 264.481 1283.56 265.418 1285.84C266.356 1288.12 266.824 1290.91 266.824 1294.19V1330H258.059V1324.42ZM319.822 1330H311.01V1300.19C311.01 1297.78 310.885 1295.55 310.635 1293.48C310.416 1291.39 309.979 1289.72 309.322 1288.47C308.604 1287.16 307.604 1286.19 306.322 1285.56C305.041 1284.91 303.291 1284.58 301.072 1284.58C298.885 1284.58 296.619 1285.17 294.276 1286.36C291.963 1287.52 289.697 1289.03 287.479 1290.91V1330H278.666V1277.64H287.479V1283.45C290.104 1281.11 292.697 1279.31 295.26 1278.06C297.822 1276.81 300.526 1276.19 303.369 1276.19C308.526 1276.19 312.557 1277.89 315.463 1281.3C318.369 1284.67 319.822 1289.58 319.822 1296.02V1330ZM375.024 1330H363.446L343.899 1304.73L340.43 1308.11V1330H331.617V1257.06H340.43V1299.77L361.149 1277.64H372.117L350.602 1299.53L375.024 1330ZM449.426 1277.64L421.254 1349.31H411.832L421.207 1327.47L402.176 1277.64H411.692L425.989 1316.41L440.239 1277.64H449.426ZM497.831 1303.84C497.831 1312.66 495.706 1319.47 491.456 1324.28C487.206 1329.06 481.549 1331.45 474.487 1331.45C467.206 1331.45 461.471 1328.98 457.284 1324.05C453.128 1319.08 451.049 1312.34 451.049 1303.84C451.049 1295.09 453.19 1288.3 457.471 1283.45C461.784 1278.61 467.456 1276.19 474.487 1276.19C481.549 1276.19 487.206 1278.61 491.456 1283.45C495.706 1288.27 497.831 1295.06 497.831 1303.84ZM488.737 1303.84C488.737 1297.06 487.503 1292.03 485.034 1288.75C482.565 1285.44 479.049 1283.78 474.487 1283.78C469.893 1283.78 466.346 1285.44 463.846 1288.75C461.378 1292.03 460.143 1297.06 460.143 1303.84C460.143 1310.41 461.378 1315.39 463.846 1318.8C466.346 1322.17 469.893 1323.86 474.487 1323.86C479.018 1323.86 482.518 1322.2 484.987 1318.89C487.487 1315.55 488.737 1310.53 488.737 1303.84ZM547.079 1330H538.266V1324.19C535.547 1326.56 532.969 1328.38 530.532 1329.62C528.094 1330.84 525.376 1331.45 522.376 1331.45C520.094 1331.45 517.938 1331.08 515.907 1330.33C513.907 1329.58 512.157 1328.39 510.657 1326.77C509.157 1325.14 507.985 1323.09 507.141 1320.62C506.329 1318.16 505.922 1315.16 505.922 1311.62V1277.64H514.735V1307.45C514.735 1310.23 514.829 1312.55 515.016 1314.39C515.235 1316.2 515.704 1317.8 516.422 1319.17C517.141 1320.52 518.11 1321.5 519.329 1322.12C520.579 1322.75 522.36 1323.06 524.672 1323.06C526.829 1323.06 529.126 1322.45 531.563 1321.23C534.001 1320.02 536.235 1318.52 538.266 1316.73V1277.64H547.079V1330ZM574.061 1260.2L572.749 1310.78H564.967L563.561 1260.2H574.061ZM573.592 1330H564.03V1320.11H573.592V1330Z" fill="#606060"/>
<rect x="1210" y="1201" width="442" height="181" rx="28" fill="#CBB1EB"/>
<rect x="1210" y="1201" width="442" height="181" rx="28" stroke="black" stroke-width="8"/>
<path d="M1352.98 1331.27C1347.92 1331.27 1343.6 1330.75 1340.04 1329.72C1336.51 1328.66 1333.18 1327.36 1330.06 1325.83V1314.2H1330.71C1333.78 1317.08 1337.25 1319.31 1341.12 1320.91C1345 1322.47 1348.73 1323.25 1352.32 1323.25C1357.45 1323.25 1361.32 1322.19 1363.95 1320.06C1366.57 1317.91 1367.89 1315.08 1367.89 1311.58C1367.89 1308.8 1367.2 1306.53 1365.82 1304.78C1364.45 1303.03 1362.26 1301.73 1359.26 1300.89C1357.1 1300.27 1355.14 1299.75 1353.35 1299.34C1351.57 1298.94 1349.34 1298.39 1346.65 1297.7C1344.25 1297.08 1342.09 1296.28 1340.18 1295.31C1338.28 1294.34 1336.59 1293.08 1335.12 1291.52C1333.68 1289.98 1332.56 1288.19 1331.75 1286.12C1330.96 1284.03 1330.57 1281.62 1330.57 1278.91C1330.57 1273.25 1332.78 1268.52 1337.18 1264.7C1341.59 1260.86 1347.21 1258.94 1354.06 1258.94C1357.96 1258.94 1361.65 1259.33 1365.12 1260.11C1368.62 1260.89 1371.85 1262 1374.82 1263.44V1274.55H1374.12C1371.9 1272.52 1369.06 1270.75 1365.59 1269.25C1362.12 1267.72 1358.48 1266.95 1354.67 1266.95C1350.35 1266.95 1346.87 1267.97 1344.21 1270C1341.56 1272 1340.23 1274.64 1340.23 1277.92C1340.23 1280.89 1341.01 1283.25 1342.57 1285C1344.14 1286.75 1346.4 1288.03 1349.37 1288.84C1351.34 1289.38 1353.75 1289.98 1356.59 1290.67C1359.43 1291.33 1361.79 1291.94 1363.67 1292.5C1368.48 1293.97 1372 1296.19 1374.21 1299.16C1376.43 1302.12 1377.54 1305.78 1377.54 1310.12C1377.54 1312.84 1376.98 1315.53 1375.85 1318.19C1374.76 1320.84 1373.21 1323.09 1371.21 1324.94C1368.96 1326.97 1366.42 1328.53 1363.57 1329.62C1360.76 1330.72 1357.23 1331.27 1352.98 1331.27ZM1408.7 1331.22C1400.35 1331.22 1393.87 1328.88 1389.24 1324.19C1384.65 1319.47 1382.35 1312.78 1382.35 1304.12C1382.35 1295.59 1384.59 1288.81 1389.06 1283.78C1393.52 1278.72 1399.37 1276.19 1406.59 1276.19C1409.84 1276.19 1412.71 1276.66 1415.21 1277.59C1417.71 1278.53 1419.9 1280 1421.77 1282C1423.65 1284 1425.09 1286.45 1426.09 1289.36C1427.09 1292.23 1427.59 1295.77 1427.59 1299.95V1304.73H1391.31C1391.31 1310.83 1392.84 1315.48 1395.9 1318.7C1398.96 1321.92 1403.2 1323.53 1408.6 1323.53C1410.54 1323.53 1412.43 1323.31 1414.27 1322.88C1416.15 1322.44 1417.84 1321.88 1419.34 1321.19C1420.93 1320.47 1422.27 1319.78 1423.37 1319.12C1424.46 1318.44 1425.37 1317.8 1426.09 1317.2H1426.6V1326.81C1425.57 1327.22 1424.29 1327.73 1422.76 1328.36C1421.23 1328.95 1419.85 1329.42 1418.63 1329.77C1416.92 1330.23 1415.35 1330.59 1413.95 1330.84C1412.57 1331.09 1410.82 1331.22 1408.7 1331.22ZM1419.01 1297.98C1418.95 1295.61 1418.67 1293.56 1418.17 1291.84C1417.67 1290.12 1416.95 1288.67 1416.01 1287.48C1414.98 1286.17 1413.65 1285.17 1412.02 1284.48C1410.43 1283.8 1408.45 1283.45 1406.07 1283.45C1403.73 1283.45 1401.73 1283.81 1400.07 1284.53C1398.45 1285.22 1396.96 1286.23 1395.62 1287.58C1394.31 1288.95 1393.31 1290.48 1392.62 1292.17C1391.93 1293.83 1391.49 1295.77 1391.31 1297.98H1419.01ZM1477.07 1330H1468.26V1300.19C1468.26 1297.78 1468.13 1295.55 1467.88 1293.48C1467.66 1291.39 1467.23 1289.72 1466.57 1288.47C1465.85 1287.16 1464.85 1286.19 1463.57 1285.56C1462.29 1284.91 1460.54 1284.58 1458.32 1284.58C1456.13 1284.58 1453.87 1285.17 1451.52 1286.36C1449.21 1287.52 1446.94 1289.03 1444.73 1290.91V1330H1435.91V1277.64H1444.73V1283.45C1447.35 1281.11 1449.94 1279.31 1452.51 1278.06C1455.07 1276.81 1457.77 1276.19 1460.62 1276.19C1465.77 1276.19 1469.8 1277.89 1472.71 1281.3C1475.62 1284.67 1477.07 1289.58 1477.07 1296.02V1330ZM1529.18 1330H1520.36V1324.66C1518.99 1325.81 1517.8 1326.77 1516.8 1327.52C1515.8 1328.27 1514.63 1328.95 1513.29 1329.58C1512.04 1330.17 1510.74 1330.62 1509.4 1330.94C1508.05 1331.28 1506.49 1331.45 1504.71 1331.45C1501.86 1331.45 1499.22 1330.86 1496.79 1329.67C1494.38 1328.48 1492.33 1326.75 1490.65 1324.47C1488.93 1322.16 1487.6 1319.31 1486.66 1315.94C1485.72 1312.53 1485.26 1308.62 1485.26 1304.22C1485.26 1299.62 1485.85 1295.66 1487.04 1292.31C1488.22 1288.94 1489.86 1286 1491.96 1283.5C1493.86 1281.22 1496.16 1279.44 1498.85 1278.16C1501.57 1276.84 1504.41 1276.19 1507.38 1276.19C1510.01 1276.19 1512.29 1276.48 1514.22 1277.08C1516.16 1277.64 1518.21 1278.53 1520.36 1279.75V1257.06H1529.18V1330ZM1520.36 1317.25V1287.06C1518.18 1286 1516.21 1285.27 1514.46 1284.86C1512.74 1284.45 1510.86 1284.25 1508.83 1284.25C1504.3 1284.25 1500.76 1285.95 1498.19 1289.36C1495.63 1292.73 1494.35 1297.62 1494.35 1304.03C1494.35 1310.19 1495.33 1314.91 1497.3 1318.19C1499.27 1321.44 1502.43 1323.06 1506.77 1323.06C1509.08 1323.06 1511.41 1322.55 1513.76 1321.52C1516.1 1320.45 1518.3 1319.03 1520.36 1317.25Z" fill="black"/>
<defs>
<linearGradient id="paint0_linear_4849_7990" x1="0" y1="69.7095" x2="1729.95" y2="69.7095" gradientUnits="userSpaceOnUse">
<stop stop-color="#050852"/>
<stop offset="0.535" stop-color="#9D85C7"/>
</linearGradient>
</defs>
</svg>
