<svg width="1819" height="1571" viewBox="0 0 1819 1571" fill="none" xmlns="http://www.w3.org/2000/svg">
<g clip-path="url(#clip0_7584_288)">
<rect width="1819" height="1571" rx="50" fill="#1D3162"/>
<path d="M1620.07 1354.58C1805.55 1183.58 1716.94 1055.69 1677.29 1017.67C1523.64 870.329 1343.8 830.537 1208.32 1053.83C1072.84 1277.13 721.894 780.946 575.082 606.255C747.951 536.748 895.688 292.86 559.668 112.886C352.061 2.21672 149.159 291.221 156.161 418.778C154.83 664.213 284.474 775.612 614.778 1133.89C949.466 1496.92 1353.74 1600.11 1620.07 1354.58Z" fill="#EB1A12"/>
<path d="M406.809 578.129C386.408 637.821 339.183 665.778 294.981 665.778C231.511 665.778 178.998 608.731 178.998 522.216C178.998 436.834 230.378 380.542 305.559 380.542C348.25 380.542 384.519 398.676 398.119 437.589C420.031 500.681 347.495 516.926 333.516 446.279C329.36 423.989 329.738 388.476 303.292 388.476C271.18 388.476 242.467 441.745 242.467 506.348C242.467 571.329 271.18 617.798 322.56 617.798C357.317 617.798 386.785 596.264 406.809 578.129ZM483.755 563.017C483.755 620.065 501.889 658.222 533.624 658.222C564.981 658.222 583.493 620.065 583.493 563.017C583.493 505.592 564.981 467.813 533.624 467.813C501.889 467.813 483.755 505.592 483.755 563.017ZM420.285 563.017C420.285 501.059 461.465 459.879 533.624 459.879C605.405 459.879 646.963 501.059 646.963 563.017C646.963 624.598 605.405 665.778 533.624 665.778C461.465 665.778 420.285 624.598 420.285 563.017ZM878.121 522.593V616.287C878.121 629.51 883.788 644.999 892.099 654.822L897.766 662H794.628L800.673 654.822C808.984 644.999 814.651 629.51 814.651 616.287V542.616C814.651 505.592 804.073 486.703 783.294 486.703C757.982 486.703 739.092 516.549 739.092 560.751V616.287C739.092 629.51 744.759 644.999 753.07 654.822L759.115 662H655.977L662.022 654.822C670.333 644.999 675.622 629.51 675.622 616.287V509.37C675.622 496.148 670.333 480.658 662.022 470.835L655.977 463.657H739.092V514.66C752.315 480.28 781.027 459.879 816.918 459.879C857.72 459.879 878.121 485.947 878.121 522.593ZM892.775 471.591V463.657H912.421C946.8 463.657 967.957 442.878 967.957 406.232H975.89V463.657H1030.67V471.591H975.89V578.129C975.89 623.087 977.401 658.222 995.536 658.222C1006.87 658.222 1009.51 644.244 1010.27 634.799C1014.43 572.84 1074.49 584.174 1065.81 622.709C1060.89 644.621 1036.34 665.778 995.536 665.778C941.889 665.778 912.421 636.688 912.421 574.729V471.591H892.775ZM1198.27 562.262H1189.58C1158.98 562.262 1139.34 584.174 1139.34 613.642C1139.34 635.176 1149.92 650.288 1164.27 650.288C1181.65 650.288 1198.27 627.998 1198.27 581.152V562.262ZM1276.85 655.955L1281.77 662H1198.27V629.132C1188.45 652.933 1169.56 665.778 1140.09 665.778C1101.18 665.778 1075.87 643.11 1075.87 614.02C1075.87 573.596 1124.98 554.328 1168.81 554.328H1198.27V531.66C1198.27 486.703 1185.43 467.813 1170.69 467.813C1154.45 467.813 1148.4 489.725 1146.14 500.681C1131.4 569.44 1084.18 549.417 1092.11 508.993C1097.78 481.036 1126.11 459.879 1171.45 459.879C1220.56 459.879 1261.74 485.191 1261.74 547.15V614.776C1261.74 628.754 1267.79 645.377 1276.85 655.955ZM1402.85 630.265C1414.18 630.265 1438.36 626.487 1467.45 600.041C1453.85 630.643 1426.65 665.778 1380.56 665.778C1331.07 665.778 1289.89 624.598 1289.89 563.017C1289.89 501.059 1331.07 459.879 1385.85 459.879C1425.52 459.879 1454.23 481.036 1459.52 508.993C1467.45 549.417 1420.23 569.44 1405.87 500.681C1403.23 489.725 1397.56 467.813 1383.58 467.813C1366.58 467.813 1353.36 502.57 1353.36 547.528C1353.36 600.041 1371.49 630.265 1402.85 630.265ZM1471.64 471.591V463.657H1491.29C1525.67 463.657 1546.83 442.878 1546.83 406.232H1554.76V463.657H1609.54V471.591H1554.76V578.129C1554.76 623.087 1556.27 658.222 1574.4 658.222C1585.74 658.222 1588.38 644.244 1589.14 634.799C1593.29 572.84 1653.36 584.174 1644.67 622.709C1639.76 644.621 1615.21 665.778 1574.4 665.778C1520.76 665.778 1491.29 636.688 1491.29 574.729V471.591H1471.64ZM530.035 1022.13C509.634 1081.82 462.409 1109.78 418.207 1109.78C354.738 1109.78 302.224 1052.73 302.224 966.216C302.224 880.834 353.604 824.542 428.786 824.542C471.477 824.542 507.745 842.676 521.346 881.589C543.258 944.681 470.721 960.926 456.743 890.279C452.587 867.989 452.965 832.476 426.519 832.476C394.406 832.476 365.694 885.745 365.694 950.348C365.694 1015.33 394.406 1061.8 445.786 1061.8C480.544 1061.8 510.012 1040.26 530.035 1022.13ZM607.359 991.528V992.283H655.717C656.85 935.614 647.406 911.813 633.427 911.813C617.182 911.813 607.359 943.926 607.359 991.528ZM656.473 1074.27C668.184 1074.27 692.363 1070.49 721.454 1044.04C707.853 1074.64 680.652 1109.78 634.56 1109.78C585.069 1109.78 543.889 1068.6 543.889 1007.02C543.889 945.059 585.069 903.879 635.694 903.879C681.785 903.879 713.52 938.259 713.52 992.283V1000.22H607.359C609.248 1047.44 627.005 1074.27 656.473 1074.27ZM948.589 966.593V1060.29C948.589 1073.51 954.256 1089 962.567 1098.82L968.234 1106H865.096L871.14 1098.82C879.452 1089 885.119 1073.51 885.119 1060.29V986.616C885.119 949.592 874.541 930.703 853.762 930.703C828.449 930.703 809.56 960.549 809.56 1004.75V1060.29C809.56 1073.51 815.227 1089 823.538 1098.82L829.583 1106H726.445L732.489 1098.82C740.801 1089 746.09 1073.51 746.09 1060.29V953.37C746.09 940.148 740.801 924.658 732.489 914.835L726.445 907.657H809.56V958.66C822.783 924.28 851.495 903.879 887.386 903.879C928.188 903.879 948.589 929.947 948.589 966.593ZM963.243 915.591V907.657H982.888C1017.27 907.657 1038.42 886.878 1038.42 850.232H1046.36V907.657H1101.14V915.591H1046.36V1022.13C1046.36 1067.09 1047.87 1102.22 1066 1102.22C1077.34 1102.22 1079.98 1088.24 1080.74 1078.8C1084.89 1016.84 1144.96 1028.17 1136.27 1066.71C1131.36 1088.62 1106.81 1109.78 1066 1109.78C1012.36 1109.78 982.888 1080.69 982.888 1018.73V915.591H963.243ZM1211.32 991.528V992.283H1259.67C1260.81 935.614 1251.36 911.813 1237.38 911.813C1221.14 911.813 1211.32 943.926 1211.32 991.528ZM1260.43 1074.27C1272.14 1074.27 1296.32 1070.49 1325.41 1044.04C1311.81 1074.64 1284.61 1109.78 1238.52 1109.78C1189.03 1109.78 1147.85 1068.6 1147.85 1007.02C1147.85 945.059 1189.03 903.879 1239.65 903.879C1285.74 903.879 1317.48 938.259 1317.48 992.283V1000.22H1211.32C1213.21 1047.44 1230.96 1074.27 1260.43 1074.27ZM1427.5 1098.82L1433.54 1106H1330.4L1336.45 1098.82C1344.76 1089 1350.05 1073.51 1350.05 1060.29V953.37C1350.05 940.148 1344.76 924.658 1336.45 914.835L1330.4 907.657H1413.52V950.348C1423.34 921.258 1441.47 903.879 1466.41 903.879C1491.34 903.879 1514.77 921.636 1520.06 949.215C1527.99 993.417 1480.76 1013.44 1467.16 950.726C1463.76 933.725 1457.72 923.525 1446.01 923.525C1426.36 923.525 1413.52 951.481 1413.52 1007.02V1060.29C1413.52 1073.51 1419.18 1089 1427.5 1098.82Z" fill="white"/>
</g>
<defs>
<clipPath id="clip0_7584_288">
<rect width="1819" height="1571" rx="50" fill="white"/>
</clipPath>
</defs>
</svg>
