<svg width="1819" height="1571" viewBox="0 0 1819 1571" fill="none" xmlns="http://www.w3.org/2000/svg">
<g clip-path="url(#clip0_6945_298)">
<rect width="1819" height="1571" rx="50" fill="#450099"/>
<path d="M417.146 520.323C362.008 681.652 234.375 757.211 114.91 757.211C-56.6292 757.211 -198.558 603.03 -198.558 369.205C-198.558 138.444 -59.6924 -13.6951 143.5 -13.6951C258.881 -13.6951 356.903 35.3161 393.661 140.486C452.883 311.004 256.838 354.91 219.059 163.971C207.827 103.728 208.848 7.74731 137.374 7.74731C50.5828 7.74731 -27.0183 151.718 -27.0183 326.32C-27.0183 501.944 50.5828 627.535 189.448 627.535C283.386 627.535 363.029 569.334 417.146 520.323ZM663.127 393.711H724.391C836.709 393.711 910.226 319.173 910.226 207.877C910.226 93.5169 836.709 17.958 724.391 17.958H663.127V393.711ZM700.907 727.6L717.244 747H438.493L454.83 727.6C477.293 701.052 491.588 659.188 491.588 623.451V120.065C491.588 84.3273 477.293 42.4636 454.83 15.9159L438.493 -3.48441H874.488C999.058 -3.48441 1081.76 79.222 1081.76 203.792C1081.76 332.447 999.058 415.153 874.488 415.153H873.467C914.31 426.385 950.047 455.996 966.384 497.86L999.058 584.65C1012.33 618.346 1037.86 656.125 1063.39 680.631L1134.86 747H937.794C903.078 747 870.404 724.537 856.109 691.862L740.728 415.153H663.127V623.451C663.127 659.188 678.443 701.052 700.907 727.6ZM1264.76 727.6L1281.1 747H1152.44L1168.78 727.6C1191.24 701.052 1205.54 659.188 1205.54 623.451V120.065C1205.54 84.3273 1191.24 42.4636 1168.78 15.9159L1152.44 -3.48441H1386.27L1585.37 513.176L1793.67 -3.48441H2020.35L2005.03 15.9159C1982.57 42.4636 1967.25 84.3273 1967.25 120.065V623.451C1967.25 659.188 1982.57 701.052 2005.03 727.6L2020.35 747H1741.6L1757.93 727.6C1780.4 701.052 1795.71 659.188 1795.71 623.451V50.6321L1514.92 747H1491.44L1226.98 62.885V623.451C1226.98 659.188 1242.3 701.052 1264.76 727.6Z" fill="#9D44FF"/>
<path d="M417.146 1356.97C362.008 1518.3 234.375 1593.86 114.91 1593.86C-56.6292 1593.86 -198.558 1439.68 -198.558 1205.85C-198.558 975.09 -59.6924 822.951 143.5 822.951C258.881 822.951 356.903 871.963 393.661 977.133C452.883 1147.65 256.838 1191.56 219.059 1000.62C207.827 940.374 208.848 844.394 137.374 844.394C50.5828 844.394 -27.0183 988.364 -27.0183 1162.97C-27.0183 1338.59 50.5828 1464.18 189.448 1464.18C283.386 1464.18 363.029 1405.98 417.146 1356.97ZM663.127 1230.36H724.391C836.709 1230.36 910.226 1155.82 910.226 1044.52C910.226 930.163 836.709 854.604 724.391 854.604H663.127V1230.36ZM700.907 1564.25L717.244 1583.65H438.493L454.83 1564.25C477.293 1537.7 491.588 1495.83 491.588 1460.1V956.711C491.588 920.974 477.293 879.11 454.83 852.562L438.493 833.162H874.488C999.058 833.162 1081.76 915.868 1081.76 1040.44C1081.76 1169.09 999.058 1251.8 874.488 1251.8H873.467C914.31 1263.03 950.047 1292.64 966.384 1334.51L999.058 1421.3C1012.33 1454.99 1037.86 1492.77 1063.39 1517.28L1134.86 1583.65H937.794C903.078 1583.65 870.404 1561.18 856.109 1528.51L740.728 1251.8H663.127V1460.1C663.127 1495.83 678.443 1537.7 700.907 1564.25ZM1264.76 1564.25L1281.1 1583.65H1152.44L1168.78 1564.25C1191.24 1537.7 1205.54 1495.83 1205.54 1460.1V956.711C1205.54 920.974 1191.24 879.11 1168.78 852.562L1152.44 833.162H1386.27L1585.37 1349.82L1793.67 833.162H2020.35L2005.03 852.562C1982.57 879.11 1967.25 920.974 1967.25 956.711V1460.1C1967.25 1495.83 1982.57 1537.7 2005.03 1564.25L2020.35 1583.65H1741.6L1757.93 1564.25C1780.4 1537.7 1795.71 1495.83 1795.71 1460.1V887.279L1514.92 1583.65H1491.44L1226.98 899.531V1460.1C1226.98 1495.83 1242.3 1537.7 1264.76 1564.25Z" fill="#331A4E"/>
<path d="M349.911 714.049L353.239 718H296.467L299.794 714.049C304.369 708.642 307.281 700.116 307.281 692.837V590.316C307.281 583.037 304.369 574.511 299.794 569.104L296.467 565.153H353.239L349.911 569.104C345.336 574.511 342.217 583.037 342.217 590.316V692.837C342.217 700.116 345.336 708.642 349.911 714.049ZM481.69 641.265V692.837C481.69 700.116 484.809 708.642 489.384 714.049L492.503 718H435.732L439.059 714.049C443.634 708.642 446.753 700.116 446.753 692.837V652.286C446.753 631.907 440.931 621.509 429.493 621.509C415.56 621.509 405.162 637.937 405.162 662.268V692.837C405.162 700.116 408.282 708.642 412.857 714.049L416.184 718H359.412L362.74 714.049C367.315 708.642 370.226 700.116 370.226 692.837V633.986C370.226 626.708 367.315 618.182 362.74 612.775L359.412 608.824H405.162V636.898C412.441 617.974 428.245 606.744 448.001 606.744C470.46 606.744 481.69 621.093 481.69 641.265ZM497.507 613.191V608.824H508.321C509.777 577.839 525.789 563.074 554.071 563.074C576.53 563.074 590.047 574.719 592.751 586.781C597.533 607.992 564.469 614.231 562.181 580.126C561.765 574.927 560.31 567.441 554.071 567.441C544.505 567.441 543.257 585.325 543.257 608.824H573.411V613.191H543.257V692.837C543.257 700.116 546.377 708.642 550.952 714.049L554.279 718H497.507L500.835 714.049C505.41 708.642 508.321 700.116 508.321 692.837V613.191H497.507ZM601.728 663.516C601.728 694.917 611.71 715.92 629.178 715.92C646.439 715.92 656.628 694.917 656.628 663.516C656.628 631.907 646.439 611.111 629.178 611.111C611.71 611.111 601.728 631.907 601.728 663.516ZM566.792 663.516C566.792 629.411 589.459 606.744 629.178 606.744C668.69 606.744 691.565 629.411 691.565 663.516C691.565 697.412 668.69 720.08 629.178 720.08C589.459 720.08 566.792 697.412 566.792 663.516ZM749.971 714.049L753.298 718H696.526L699.854 714.049C704.429 708.642 707.34 700.116 707.34 692.837V633.986C707.34 626.708 704.429 618.182 699.854 612.775L696.526 608.824H742.276V632.323C747.683 616.31 757.665 606.744 771.39 606.744C785.115 606.744 798.008 616.518 800.92 631.699C805.287 656.03 779.292 667.051 771.806 632.531C769.934 623.173 766.607 617.558 760.161 617.558C749.347 617.558 742.276 632.947 742.276 663.516V692.837C742.276 700.116 745.396 708.642 749.971 714.049ZM974.039 641.265V692.837C974.039 700.116 976.95 708.642 981.525 714.049L984.852 718H928.081L931.408 714.049C935.983 708.642 939.102 700.116 939.102 692.837V652.286C939.102 633.778 937.439 621.509 929.744 621.509C919.97 621.509 912.484 638.977 912.484 662.268V692.837C912.484 700.116 915.395 708.642 919.97 714.049L923.298 718H866.526L869.853 714.049C874.428 708.642 877.548 700.116 877.548 692.837V652.286C877.548 633.778 875.884 621.509 867.982 621.509C858.416 621.509 850.722 638.977 850.722 662.268V692.837C850.722 700.116 853.841 708.642 858.416 714.049L861.743 718H804.971L808.299 714.049C812.874 708.642 815.785 700.116 815.785 692.837V633.986C815.785 626.708 812.874 618.182 808.299 612.775L804.971 608.824H850.722V634.61C856.96 617.35 869.437 606.744 885.45 606.744C901.047 606.744 910.612 616.726 912.276 635.442C918.307 617.766 930.784 606.744 947.212 606.744C964.057 606.744 974.039 618.598 974.039 641.265ZM1058.19 663.1H1053.4C1036.56 663.1 1025.75 675.161 1025.75 691.382C1025.75 703.235 1031.57 711.553 1039.47 711.553C1049.04 711.553 1058.19 699.284 1058.19 673.498V663.1ZM1101.44 714.673L1104.15 718H1058.19V699.908C1052.78 713.009 1042.38 720.08 1026.16 720.08C1004.74 720.08 990.81 707.602 990.81 691.59C990.81 669.339 1017.84 658.733 1041.97 658.733H1058.19V646.256C1058.19 621.509 1051.12 611.111 1043.01 611.111C1034.06 611.111 1030.74 623.173 1029.49 629.203C1021.38 667.051 995.385 656.03 999.752 633.778C1002.87 618.39 1018.47 606.744 1043.42 606.744C1070.46 606.744 1093.12 620.677 1093.12 654.782V692.006C1093.12 699.7 1096.45 708.85 1101.44 714.673ZM1099.81 613.191V608.824H1110.62C1129.55 608.824 1141.19 597.386 1141.19 577.215H1145.56V608.824H1175.71V613.191H1145.56V671.834C1145.56 696.581 1146.39 715.92 1156.37 715.92C1162.61 715.92 1164.07 708.226 1164.48 703.027C1166.77 668.923 1199.84 675.161 1195.05 696.373C1192.35 708.434 1178.83 720.08 1156.37 720.08C1126.84 720.08 1110.62 704.067 1110.62 669.962V613.191H1099.81ZM1251.58 714.049L1254.91 718H1198.14L1201.46 714.049C1206.04 708.642 1208.95 700.116 1208.95 692.837V633.986C1208.95 626.708 1206.04 618.182 1201.46 612.775L1198.14 608.824H1243.89V692.837C1243.89 700.116 1247.01 708.642 1251.58 714.049ZM1202.92 584.077C1202.92 571.392 1211.44 563.074 1226.21 563.074C1241.18 563.074 1249.71 571.392 1249.71 584.077C1249.71 596.762 1241.18 605.289 1226.21 605.289C1211.44 605.289 1202.92 596.762 1202.92 584.077ZM1294.64 663.516C1294.64 694.917 1304.62 715.92 1322.09 715.92C1339.35 715.92 1349.54 694.917 1349.54 663.516C1349.54 631.907 1339.35 611.111 1322.09 611.111C1304.62 611.111 1294.64 631.907 1294.64 663.516ZM1259.7 663.516C1259.7 629.411 1282.37 606.744 1322.09 606.744C1361.6 606.744 1384.48 629.411 1384.48 663.516C1384.48 697.412 1361.6 720.08 1322.09 720.08C1282.37 720.08 1259.7 697.412 1259.7 663.516ZM1511.72 641.265V692.837C1511.72 700.116 1514.83 708.642 1519.41 714.049L1522.53 718H1465.76L1469.08 714.049C1473.66 708.642 1476.78 700.116 1476.78 692.837V652.286C1476.78 631.907 1470.96 621.509 1459.52 621.509C1445.59 621.509 1435.19 637.937 1435.19 662.268V692.837C1435.19 700.116 1438.31 708.642 1442.88 714.049L1446.21 718H1389.44L1392.77 714.049C1397.34 708.642 1400.25 700.116 1400.25 692.837V633.986C1400.25 626.708 1397.34 618.182 1392.77 612.775L1389.44 608.824H1435.19V636.898C1442.47 617.974 1458.27 606.744 1478.03 606.744C1500.49 606.744 1511.72 621.093 1511.72 641.265ZM250.441 915.21H300.558L276.019 854.695L250.441 915.21ZM239.835 928.935L290.368 809.153H295.151L343.605 928.935C346.516 935.798 351.507 943.7 356.29 949.107L367.935 962H303.885L307.005 951.81C309.292 944.74 308.668 935.798 305.965 928.935L302.222 919.577H248.569L244.618 928.935C241.707 935.59 241.291 944.74 243.163 951.81L246.074 962H215.089L227.15 948.899C231.933 943.7 236.924 935.59 239.835 928.935ZM421.589 958.049L424.917 962H368.145L371.472 958.049C376.047 952.642 378.959 944.116 378.959 936.837V877.986C378.959 870.708 376.047 862.182 371.472 856.775L368.145 852.824H413.895V876.323C419.302 860.31 429.284 850.744 443.009 850.744C456.734 850.744 469.627 860.518 472.538 875.699C476.905 900.03 450.911 911.051 443.424 876.531C441.553 867.173 438.226 861.558 431.779 861.558C420.965 861.558 413.895 876.947 413.895 907.516V936.837C413.895 944.116 417.014 952.642 421.589 958.049ZM541.854 944.532C548.092 944.532 561.401 942.452 577.414 927.895C569.928 944.74 554.955 964.08 529.584 964.08C502.342 964.08 479.675 941.412 479.675 907.516C479.675 873.411 502.342 850.744 532.496 850.744C554.331 850.744 570.135 862.39 573.047 877.778C577.414 900.03 551.42 911.051 543.517 873.203C542.062 867.173 538.942 855.111 531.248 855.111C521.89 855.111 514.612 874.243 514.612 898.99C514.612 927.895 524.593 944.532 541.854 944.532ZM702.221 885.265V936.837C702.221 944.116 705.34 952.642 709.915 958.049L713.034 962H656.263L659.59 958.049C664.165 952.642 667.284 944.116 667.284 936.837V896.286C667.284 875.907 661.462 865.509 650.024 865.509C636.091 865.509 625.693 881.937 625.693 906.268V936.837C625.693 944.116 628.813 952.642 633.388 958.049L636.715 962H579.943L583.271 958.049C587.846 952.642 590.757 944.116 590.757 936.837V834.316C590.757 827.037 587.846 818.511 583.271 813.104L579.943 809.153H625.693V880.898C632.972 861.974 648.776 850.744 668.532 850.744C690.991 850.744 702.221 865.093 702.221 885.265ZM771.497 958.049L774.825 962H718.053L721.38 958.049C725.955 952.642 728.867 944.116 728.867 936.837V877.986C728.867 870.708 725.955 862.182 721.38 856.775L718.053 852.824H763.803V936.837C763.803 944.116 766.922 952.642 771.497 958.049ZM722.836 828.077C722.836 815.392 731.362 807.074 746.127 807.074C761.1 807.074 769.626 815.392 769.626 828.077C769.626 840.762 761.1 849.289 746.127 849.289C731.362 849.289 722.836 840.762 722.836 828.077ZM775.085 857.191V852.824H785.898C804.822 852.824 816.468 841.386 816.468 821.215H820.835V852.824H850.988V857.191H820.835V915.834C820.835 940.581 821.666 959.92 831.648 959.92C837.887 959.92 839.343 952.226 839.758 947.027C842.046 912.923 875.111 919.161 870.328 940.373C867.624 952.434 854.107 964.08 831.648 964.08C802.119 964.08 785.898 948.067 785.898 913.962V857.191H775.085ZM911.634 898.99V899.406H938.253C938.876 868.212 933.678 855.111 925.983 855.111C917.041 855.111 911.634 872.787 911.634 898.99ZM938.668 944.532C945.115 944.532 958.424 942.452 974.437 927.895C966.95 944.74 951.978 964.08 926.607 964.08C899.365 964.08 876.698 941.412 876.698 907.516C876.698 873.411 899.365 850.744 927.231 850.744C952.601 850.744 970.07 869.668 970.07 899.406V903.773H911.634C912.674 929.767 922.448 944.532 938.668 944.532ZM1044.48 944.532C1050.72 944.532 1064.03 942.452 1080.04 927.895C1072.55 944.74 1057.58 964.08 1032.21 964.08C1004.97 964.08 982.3 941.412 982.3 907.516C982.3 873.411 1004.97 850.744 1035.12 850.744C1056.96 850.744 1072.76 862.39 1075.67 877.778C1080.04 900.03 1054.04 911.051 1046.14 873.203C1044.69 867.173 1041.57 855.111 1033.87 855.111C1024.51 855.111 1017.24 874.243 1017.24 898.99C1017.24 927.895 1027.22 944.532 1044.48 944.532ZM1082.35 857.191V852.824H1093.16C1112.08 852.824 1123.73 841.386 1123.73 821.215H1128.1V852.824H1158.25V857.191H1128.1V915.834C1128.1 940.581 1128.93 959.92 1138.91 959.92C1145.15 959.92 1146.6 952.226 1147.02 947.027C1149.31 912.923 1182.37 919.161 1177.59 940.373C1174.89 952.434 1161.37 964.08 1138.91 964.08C1109.38 964.08 1093.16 948.067 1093.16 913.962V857.191H1082.35ZM1189.83 929.559V877.986C1189.83 870.708 1186.92 862.182 1182.34 856.775L1179.02 852.824H1224.77V918.537C1224.77 938.917 1230.8 949.315 1239.95 949.315C1251.59 949.315 1261.78 932.886 1261.78 908.556V877.986C1261.78 870.708 1258.66 862.182 1254.09 856.775L1250.76 852.824H1296.72V936.837C1296.72 944.116 1299.84 952.642 1304.41 958.049L1307.53 962H1261.78V934.134C1254.5 952.85 1239.53 964.08 1221.44 964.08C1201.06 964.08 1189.83 949.731 1189.83 929.559ZM1366.32 958.049L1369.65 962H1312.88L1316.2 958.049C1320.78 952.642 1323.69 944.116 1323.69 936.837V877.986C1323.69 870.708 1320.78 862.182 1316.2 856.775L1312.88 852.824H1358.63V876.323C1364.03 860.31 1374.02 850.744 1387.74 850.744C1401.47 850.744 1414.36 860.518 1417.27 875.699C1421.64 900.03 1395.64 911.051 1388.16 876.531C1386.28 867.173 1382.96 861.558 1376.51 861.558C1365.7 861.558 1358.63 876.947 1358.63 907.516V936.837C1358.63 944.116 1361.75 952.642 1366.32 958.049ZM1459.34 898.99V899.406H1485.96C1486.59 868.212 1481.39 855.111 1473.69 855.111C1464.75 855.111 1459.34 872.787 1459.34 898.99ZM1486.38 944.532C1492.82 944.532 1506.13 942.452 1522.15 927.895C1514.66 944.74 1499.69 964.08 1474.32 964.08C1447.07 964.08 1424.41 941.412 1424.41 907.516C1424.41 873.411 1447.07 850.744 1474.94 850.744C1500.31 850.744 1517.78 869.668 1517.78 899.406V903.773H1459.34C1460.38 929.767 1470.16 944.532 1486.38 944.532Z" fill="white"/>
</g>
<defs>
<clipPath id="clip0_6945_298">
<rect width="1819" height="1571" rx="50" fill="white"/>
</clipPath>
</defs>
</svg>
