<svg width="532" height="280" viewBox="0 0 532 280" fill="none" xmlns="http://www.w3.org/2000/svg">
<g clip-path="url(#clip0_2840_7919)">
<path d="M0 135L132 7.43109L132 271.569L0 135Z" fill="#201547"/>
<path d="M266 135L398 7.43109L398 271.569L266 135Z" fill="#563D7C"/>
<path d="M266 134.569L134 6.99993L134 271.138L266 134.569Z" fill="#450099"/>
<path d="M532 134.569L400 6.99993L400 271.138L532 134.569Z" fill="#886AB5"/>
<path d="M45.912 132.32C49.304 132.32 51.752 134.848 51.752 138.16C51.752 141.472 49.304 144 45.912 144H42.296V132.32H45.912ZM43.816 133.808V142.512H45.88C48.408 142.512 50.216 140.64 50.216 138.16C50.216 135.68 48.408 133.808 45.88 133.808H43.816ZM53.5273 133.088C53.5273 132.512 53.9433 132.064 54.5513 132.064C55.1593 132.064 55.5753 132.512 55.5753 133.088C55.5753 133.664 55.1593 134.112 54.5513 134.112C53.9433 134.112 53.5273 133.664 53.5273 133.088ZM55.2713 135.936V144H53.8313V135.936H55.2713ZM58.719 141.568C58.719 142.336 59.375 142.8 60.319 142.8C61.295 142.8 61.903 142.304 61.903 141.632C61.903 141.136 61.583 140.848 61.087 140.72C60.495 140.544 59.839 140.576 59.215 140.448C57.951 140.176 57.343 139.328 57.343 138.304C57.343 136.848 58.527 135.76 60.271 135.76C61.983 135.76 63.215 136.784 63.231 138.256H61.759C61.759 137.568 61.135 137.136 60.271 137.136C59.375 137.136 58.799 137.6 58.799 138.256C58.799 138.688 59.071 138.976 59.567 139.104C60.127 139.264 60.751 139.248 61.471 139.376C62.703 139.616 63.343 140.48 63.343 141.552C63.343 143.056 62.127 144.176 60.303 144.176C58.559 144.176 57.247 143.12 57.247 141.568H58.719ZM64.7529 139.968C64.7529 137.584 66.4969 135.76 68.9129 135.76C70.3529 135.76 71.5529 136.432 72.2729 137.488L71.1369 138.336C70.6729 137.616 69.8889 137.184 68.9129 137.184C67.3129 137.184 66.1929 138.352 66.1929 139.968C66.1929 141.584 67.3129 142.752 68.9129 142.752C69.8889 142.752 70.6729 142.32 71.1369 141.616L72.2729 142.448C71.5529 143.504 70.3529 144.176 68.9129 144.176C66.4969 144.176 64.7529 142.352 64.7529 139.968ZM73.4935 139.968C73.4935 137.6 75.2535 135.76 77.6855 135.76C80.1015 135.76 81.8775 137.6 81.8775 139.968C81.8775 142.32 80.1015 144.176 77.6855 144.176C75.2535 144.176 73.4935 142.32 73.4935 139.968ZM74.9335 139.968C74.9335 141.584 76.0535 142.752 77.6855 142.752C79.3015 142.752 80.4215 141.584 80.4215 139.968C80.4215 138.352 79.3015 137.184 77.6855 137.184C76.0535 137.184 74.9335 138.352 74.9335 139.968ZM88.8055 135.936H90.3415L87.2055 144H85.8135L82.6935 135.936H84.2455L86.5175 141.92L88.8055 135.936ZM99.083 139.968C99.083 140.192 99.083 140.416 99.051 140.624H92.635C92.875 141.888 93.883 142.768 95.275 142.768C96.251 142.768 97.051 142.304 97.515 141.584L98.699 142.352C97.995 143.456 96.763 144.176 95.275 144.176C92.843 144.176 91.131 142.336 91.131 139.968C91.131 137.6 92.779 135.76 95.131 135.76C97.483 135.76 99.083 137.584 99.083 139.968ZM95.131 137.168C93.771 137.168 92.811 138.016 92.619 139.344H97.627C97.435 138.016 96.475 137.168 95.131 137.168ZM104.609 135.92H105.569V137.344H104.465C103.281 137.344 102.481 138.24 102.481 139.376V144H101.041V135.936H102.465V136.912C102.945 136.272 103.713 135.92 104.609 135.92ZM112.528 135.936H114.096L109.648 147.392H108.096L109.472 143.856L106.4 135.936H107.968L110.24 141.856L112.528 135.936Z" fill="white"/>
<path d="M170.912 132.32C174.304 132.32 176.752 134.848 176.752 138.16C176.752 141.472 174.304 144 170.912 144H167.296V132.32H170.912ZM168.816 133.808V142.512H170.88C173.408 142.512 175.216 140.64 175.216 138.16C175.216 135.68 173.408 133.808 170.88 133.808H168.816ZM186.239 139.968C186.239 140.192 186.239 140.416 186.207 140.624H179.791C180.031 141.888 181.039 142.768 182.431 142.768C183.407 142.768 184.207 142.304 184.671 141.584L185.855 142.352C185.151 143.456 183.919 144.176 182.431 144.176C179.999 144.176 178.287 142.336 178.287 139.968C178.287 137.6 179.935 135.76 182.287 135.76C184.639 135.76 186.239 137.584 186.239 139.968ZM182.287 137.168C180.927 137.168 179.967 138.016 179.775 139.344H184.783C184.591 138.016 183.631 137.168 182.287 137.168ZM188.885 144V137.296H187.205V135.936H188.885V134C188.885 132.688 189.765 131.808 191.093 131.808H192.533V133.168H191.269C190.693 133.168 190.325 133.552 190.325 134.128V135.936H192.533V137.296H190.325V144H188.885ZM193.637 133.088C193.637 132.512 194.053 132.064 194.661 132.064C195.269 132.064 195.685 132.512 195.685 133.088C195.685 133.664 195.269 134.112 194.661 134.112C194.053 134.112 193.637 133.664 193.637 133.088ZM195.381 135.936V144H193.941V135.936H195.381ZM201.555 135.76C203.427 135.76 204.771 137.152 204.771 138.992V144H203.331V139.2C203.331 138.064 202.547 137.168 201.299 137.168C200.099 137.168 199.315 138.064 199.315 139.2V144H197.875V135.936H199.315V136.656C199.859 136.096 200.643 135.76 201.555 135.76ZM214.633 139.968C214.633 140.192 214.633 140.416 214.601 140.624H208.185C208.425 141.888 209.433 142.768 210.825 142.768C211.801 142.768 212.601 142.304 213.065 141.584L214.249 142.352C213.545 143.456 212.313 144.176 210.825 144.176C208.393 144.176 206.681 142.336 206.681 139.968C206.681 137.6 208.329 135.76 210.681 135.76C213.033 135.76 214.633 137.584 214.633 139.968ZM210.681 137.168C209.321 137.168 208.361 138.016 208.169 139.344H213.177C212.985 138.016 212.025 137.168 210.681 137.168Z" fill="white"/>
<path d="M315.912 132.32C319.304 132.32 321.752 134.848 321.752 138.16C321.752 141.472 319.304 144 315.912 144H312.296V132.32H315.912ZM313.816 133.808V142.512H315.88C318.408 142.512 320.216 140.64 320.216 138.16C320.216 135.68 318.408 133.808 315.88 133.808H313.816ZM331.239 139.968C331.239 140.192 331.239 140.416 331.207 140.624H324.791C325.031 141.888 326.039 142.768 327.431 142.768C328.407 142.768 329.207 142.304 329.671 141.584L330.855 142.352C330.151 143.456 328.919 144.176 327.431 144.176C324.999 144.176 323.287 142.336 323.287 139.968C323.287 137.6 324.935 135.76 327.287 135.76C329.639 135.76 331.239 137.584 331.239 139.968ZM327.287 137.168C325.927 137.168 324.967 138.016 324.775 139.344H329.783C329.591 138.016 328.631 137.168 327.287 137.168ZM338.193 135.936H339.729L336.593 144H335.201L332.081 135.936H333.633L335.905 141.92L338.193 135.936ZM348.47 139.968C348.47 140.192 348.47 140.416 348.438 140.624H342.022C342.262 141.888 343.27 142.768 344.662 142.768C345.638 142.768 346.438 142.304 346.902 141.584L348.086 142.352C347.382 143.456 346.15 144.176 344.662 144.176C342.23 144.176 340.518 142.336 340.518 139.968C340.518 137.6 342.166 135.76 344.518 135.76C346.87 135.76 348.47 137.584 348.47 139.968ZM344.518 137.168C343.158 137.168 342.198 138.016 342.006 139.344H347.014C346.822 138.016 345.862 137.168 344.518 137.168ZM350.428 144V131.808H351.868V144H350.428ZM353.828 139.968C353.828 137.6 355.588 135.76 358.02 135.76C360.436 135.76 362.212 137.6 362.212 139.968C362.212 142.32 360.436 144.176 358.02 144.176C355.588 144.176 353.828 142.32 353.828 139.968ZM355.268 139.968C355.268 141.584 356.388 142.752 358.02 142.752C359.636 142.752 360.756 141.584 360.756 139.968C360.756 138.352 359.636 137.184 358.02 137.184C356.388 137.184 355.268 138.352 355.268 139.968ZM368.335 135.76C370.687 135.76 372.367 137.6 372.367 139.968C372.367 142.336 370.687 144.176 368.335 144.176C367.231 144.176 366.287 143.76 365.615 143.072V147.392H364.175V135.936H365.615V136.864C366.287 136.176 367.231 135.76 368.335 135.76ZM368.239 142.768C369.823 142.768 370.927 141.584 370.927 139.968C370.927 138.352 369.823 137.168 368.239 137.168C366.655 137.168 365.551 138.352 365.551 139.968C365.551 141.584 366.655 142.768 368.239 142.768Z" fill="white"/>
<path d="M431.912 132.32C435.304 132.32 437.752 134.848 437.752 138.16C437.752 141.472 435.304 144 431.912 144H428.296V132.32H431.912ZM429.816 133.808V142.512H431.88C434.408 142.512 436.216 140.64 436.216 138.16C436.216 135.68 434.408 133.808 431.88 133.808H429.816ZM447.239 139.968C447.239 140.192 447.239 140.416 447.207 140.624H440.791C441.031 141.888 442.039 142.768 443.431 142.768C444.407 142.768 445.207 142.304 445.671 141.584L446.855 142.352C446.151 143.456 444.919 144.176 443.431 144.176C440.999 144.176 439.287 142.336 439.287 139.968C439.287 137.6 440.935 135.76 443.287 135.76C445.639 135.76 447.239 137.584 447.239 139.968ZM443.287 137.168C441.927 137.168 440.967 138.016 440.775 139.344H445.783C445.591 138.016 444.631 137.168 443.287 137.168ZM449.197 144V131.808H450.637V144H449.197ZM452.837 133.088C452.837 132.512 453.253 132.064 453.861 132.064C454.469 132.064 454.885 132.512 454.885 133.088C454.885 133.664 454.469 134.112 453.861 134.112C453.253 134.112 452.837 133.664 452.837 133.088ZM454.581 135.936V144H453.141V135.936H454.581ZM462.252 135.936H463.788L460.652 144H459.26L456.14 135.936H457.692L459.964 141.92L462.252 135.936ZM472.53 139.968C472.53 140.192 472.53 140.416 472.498 140.624H466.082C466.322 141.888 467.33 142.768 468.722 142.768C469.698 142.768 470.498 142.304 470.962 141.584L472.146 142.352C471.442 143.456 470.21 144.176 468.722 144.176C466.29 144.176 464.578 142.336 464.578 139.968C464.578 137.6 466.226 135.76 468.578 135.76C470.93 135.76 472.53 137.584 472.53 139.968ZM468.578 137.168C467.218 137.168 466.258 138.016 466.066 139.344H471.074C470.882 138.016 469.922 137.168 468.578 137.168ZM478.055 135.92H479.015V137.344H477.911C476.727 137.344 475.927 138.24 475.927 139.376V144H474.487V135.936H475.911V136.912C476.391 136.272 477.159 135.92 478.055 135.92ZM485.975 135.936H487.543L483.095 147.392H481.543L482.919 143.856L479.847 135.936H481.415L483.687 141.856L485.975 135.936Z" fill="white"/>
</g>
<defs>
<clipPath id="clip0_2840_7919">
<rect width="532" height="280" fill="white"/>
</clipPath>
</defs>
</svg>
