<svg width="16" height="16" viewBox="0 0 16 16" fill="none" xmlns="http://www.w3.org/2000/svg">
<g clip-path="url(#clip0_2894_27981)">
<circle cx="8" cy="8" r="8" fill="#450099"/>
<path d="M8.12251 8.42023V8.60969C8.02944 8.60969 7.95299 8.66619 7.89316 8.7792C7.83998 8.89221 7.81339 9.05176 7.81339 9.25783V11.9302H7.53419C7.47436 11.784 7.39791 11.641 7.30484 11.5014C7.21842 11.3552 7.12868 11.2388 7.03561 11.1524C6.9359 11.2588 6.80627 11.3585 6.64672 11.4516C6.49383 11.538 6.32431 11.6144 6.13818 11.6809C5.95869 11.7474 5.77256 11.8006 5.57977 11.8405C5.38699 11.8737 5.2075 11.8903 5.04131 11.8903C4.46961 11.8903 3.96771 11.7873 3.53561 11.5812C3.10351 11.3751 2.74122 11.1026 2.44872 10.7635C2.16287 10.4179 1.94682 10.029 1.80057 9.59687C1.65432 9.15812 1.5812 8.7094 1.5812 8.25071C1.5812 7.91833 1.62108 7.58927 1.70085 7.26353C1.77398 6.93115 1.88699 6.61871 2.03989 6.32621C2.19943 6.02706 2.39554 5.75451 2.62821 5.50855C2.86752 5.26258 3.1434 5.05318 3.45584 4.88034C3.66857 4.76733 3.89791 4.67759 4.14387 4.61111C4.39649 4.54463 4.66239 4.4981 4.9416 4.47151C4.98148 4.46486 5.02137 4.46154 5.06125 4.46154C5.10114 4.46154 5.14435 4.46154 5.19088 4.46154C5.39696 4.46154 5.60969 4.47816 5.82906 4.51139C6.05508 4.54463 6.27445 4.59117 6.48718 4.651C6.69991 4.70418 6.89934 4.77065 7.08547 4.85043C7.27161 4.92355 7.43447 5.00332 7.57407 5.08974L7.24501 7.01424L7.0755 7.05413L6.84615 6.61538C6.54701 6.04368 6.21795 5.60826 5.85897 5.30912C5.5 5.00332 5.15765 4.85043 4.83191 4.85043C4.49953 4.85043 4.20703 5.01662 3.95442 5.349C3.70845 5.67474 3.54558 6.19326 3.46581 6.90456C3.45252 7.01092 3.44255 7.12061 3.4359 7.23362C3.42925 7.33998 3.42593 7.44967 3.42593 7.56268C3.42593 7.95489 3.45916 8.35043 3.52564 8.74929C3.59877 9.1415 3.70513 9.50712 3.84473 9.84615C3.98433 10.1852 4.15385 10.4843 4.35328 10.7436C4.55935 10.9962 4.79202 11.179 5.05128 11.292C5.11776 11.3253 5.18091 11.3485 5.24074 11.3618C5.30722 11.3685 5.37037 11.3718 5.4302 11.3718C5.64293 11.3718 5.82241 11.2887 5.96866 11.1225C6.12156 10.9563 6.19801 10.707 6.19801 10.3746V9.25783C6.19801 9.15812 6.17142 9.06838 6.11823 8.9886C6.0717 8.90218 6.0152 8.83238 5.94872 8.7792C5.88224 8.72602 5.81244 8.68613 5.73932 8.65954C5.67284 8.62631 5.61633 8.60969 5.5698 8.60969V8.42023H8.12251ZM10.7013 4.54131C11.2797 4.54131 11.8015 4.62441 12.2668 4.7906C12.7322 4.95014 13.1277 5.18613 13.4534 5.49857C13.7858 5.80437 14.0384 6.18329 14.2113 6.63533C14.3908 7.08737 14.4805 7.60256 14.4805 8.18091C14.4805 8.75926 14.3908 9.27445 14.2113 9.7265C14.0384 10.1719 13.7858 10.5475 13.4534 10.8533C13.1277 11.1591 12.7322 11.3917 12.2668 11.5513C11.8015 11.7108 11.2797 11.7906 10.7013 11.7906H8.50758V11.6011C8.60065 11.6011 8.69371 11.5446 8.78678 11.4316C8.8732 11.312 8.91641 11.1491 8.91641 10.943V5.38889C8.91641 5.18281 8.8732 5.02327 8.78678 4.91026C8.69371 4.7906 8.60065 4.73077 8.50758 4.73077V4.54131H10.4819H10.7013ZM10.7013 11.4815C11.2996 11.3685 11.7683 11.0394 12.1073 10.4943C12.4463 9.94254 12.6325 9.16809 12.6657 8.17094C12.6325 7.16714 12.4463 6.39269 12.1073 5.84758C11.7683 5.30247 11.2996 4.97341 10.7013 4.8604V11.4815Z" fill="white"/>
</g>
<defs>
<clipPath id="clip0_2894_27981">
<rect width="16" height="16" fill="white"/>
</clipPath>
</defs>
</svg>
