<svg width="86" height="106" viewBox="0 0 86 106" fill="none" xmlns="http://www.w3.org/2000/svg">
<path d="M8.84099 105.275C6.09649 105.275 4 103.242 4 100.663V100.638C4 98.0584 6.1219 96 8.8664 96C11.6109 96 13.7074 98.033 13.7074 100.612V100.638C13.7074 103.217 11.5855 105.275 8.84099 105.275ZM8.8664 102.645C9.99723 102.645 10.7088 101.705 10.7088 100.663V100.638C10.7088 99.5831 9.98453 98.6301 8.84099 98.6301C7.71015 98.6301 6.99862 99.5704 6.99862 100.612V100.638C6.99862 101.692 7.72286 102.645 8.8664 102.645Z" fill="#DD052B"/>
<path d="M14.2985 102.264L14.9338 99.9007H19.3555L18.7202 102.264H14.2985Z" fill="#DD052B"/>
<path d="M19.8749 105.085V96.1906H23.8772C26.2406 96.1906 27.8542 97.2452 27.8542 99.3544V99.3798C27.8542 101.527 26.2152 102.671 23.8137 102.671H22.8481V105.085H19.8749ZM22.8481 100.549H23.6485C24.4109 100.549 24.9191 100.206 24.9191 99.5704V99.545C24.9191 98.897 24.449 98.5666 23.6612 98.5666H22.8481V100.549Z" fill="#DD052B"/>
<path d="M28.5116 105.085V96.1906H31.4848V105.085H28.5116Z" fill="#DD052B"/>
<path d="M34.8056 105.085V98.7064H32.1882V96.1906H40.3962V98.7064H37.7788V105.085H34.8056Z" fill="#DD052B"/>
<path d="M41.0681 105.085V96.1906H46.0488C47.2813 96.1906 48.0564 96.4701 48.5773 96.9911C48.895 97.3087 49.1237 97.7661 49.1237 98.376V98.4014C49.1237 99.456 48.4884 100.104 47.5354 100.434C48.679 100.765 49.4159 101.375 49.4159 102.594V102.62C49.4159 104.043 48.247 105.085 45.998 105.085H41.0681ZM46.2013 99.0749V99.0494C46.2013 98.6556 45.8836 98.4396 45.2483 98.4396H43.965V99.6847H45.2611C45.8964 99.6847 46.2013 99.4687 46.2013 99.0749ZM46.43 102.162C46.43 101.781 46.1124 101.514 45.4643 101.514H43.965V102.836H45.4516C46.0996 102.836 46.43 102.569 46.43 102.188V102.162Z" fill="#DD052B"/>
<path d="M50.064 105.085V96.1906H53.0372V102.544H57.2175V105.085H50.064Z" fill="#DD052B"/>
<path d="M57.2208 105.085L60.969 96.1271H63.9168L67.6651 105.085H64.4378L63.9677 103.89H60.8547L60.3973 105.085H57.2208ZM61.6043 101.781H63.2307L62.4175 99.6212L61.6043 101.781Z" fill="#DD052B"/>
<path d="M71.7315 105.25C69.9273 105.25 68.3009 104.742 67.1701 103.751L68.7583 101.857C69.724 102.594 70.8294 102.899 71.8713 102.899C72.4049 102.899 72.6337 102.76 72.6337 102.518V102.493C72.6337 102.239 72.3541 102.099 71.4012 101.908C69.4063 101.502 67.6529 100.93 67.6529 99.0494V99.024C67.6529 97.3341 68.9743 96.0254 71.4266 96.0254C73.1419 96.0254 74.4125 96.432 75.4417 97.2452L73.9932 99.2527C73.1546 98.6428 72.1508 98.376 71.3249 98.376C70.8802 98.376 70.6769 98.5285 70.6769 98.7445V98.7699C70.6769 99.0113 70.9183 99.1638 71.8586 99.3417C74.133 99.761 75.6577 100.422 75.6577 102.213V102.239C75.6577 104.106 74.1202 105.25 71.7315 105.25Z" fill="#DD052B"/>
<path d="M78.2964 105.085V98.7064H75.6789V96.1906H83.887V98.7064H81.2696V105.085H78.2964Z" fill="#DD052B"/>
<path d="M53.7268 1L11.2231 17.2421L1 59.7421L33.291 86L75.7769 69.7508L86 27.2508L53.7268 1ZM69.3189 25.2037L72.3172 26.9285V30.3816L69.3224 32.11L66.324 30.3852V26.9321L69.3189 25.2037ZM71.3023 42.1542V48.1749L66.0221 51.1995L60.7388 48.1821V42.1612L66.0186 39.1366L71.3023 42.1542ZM64.6953 31.1183V36.4308L60.0821 39.0977L55.4689 36.4343V31.1042L60.0821 28.4372L64.6953 31.1183ZM56.7749 18.2196L59.4081 19.7353V22.7671L56.7749 24.2864L54.1422 22.7705V19.7353L56.7749 18.2196ZM53.5388 39.1154L58.8225 42.1329V48.1537L53.5422 51.1748L48.255 48.1608V42.1258L53.5388 39.1154ZM39.4159 42.1683V48.1891L34.1357 51.2102L28.8485 48.1926V42.1542L34.1322 39.1331L39.4159 42.1683ZM30.0159 19.406L33.1459 21.2052V24.8106L30.0193 26.6133L26.8932 24.8142V21.2299L30.0159 19.406ZM27.1773 28.4514L31.4955 30.9306V35.8889L27.1808 38.3681L22.8622 35.8889V30.9306L27.1773 28.4514ZM26.9322 42.1506V48.1715L21.6523 51.1925L16.3686 48.1749V42.1542L21.6485 39.1331L26.9322 42.1506ZM15.3325 28.8622L18.4833 27.0419L21.6415 28.8587V32.4925L18.4907 34.3128L15.3325 32.496V28.8622ZM43.8442 76.0939L15.3537 59.696V50.0025L21.6238 53.5795L27.8583 50.0131V50.0556L34.1322 53.6327L40.3988 50.0485V66.3048L43.8407 68.3625L47.2826 66.3012V50.045L53.5531 53.6255L59.8196 50.0378V49.9954L66.0615 53.5583L72.3281 49.9741V59.6677L43.8442 76.0939Z" fill="#DD052B"/>
</svg>
